<?xml version="1.0" encoding="UTF-8" standalone="no"?>
<svg width="492.478mm" height="72.3194mm"
 xmlns="http://www.w3.org/2000/svg" xmlns:xlink="http://www.w3.org/1999/xlink"  version="1.2" baseProfile="tiny">
<title>Qt SVG Document</title>
<desc>Generated with Qt</desc>
<defs>
</defs>
<g fill="none" stroke="black" stroke-width="1" fill-rule="evenodd" stroke-linecap="square" stroke-linejoin="bevel" >

<g fill="none" stroke="#000000" stroke-opacity="1" stroke-width="1" stroke-linecap="square" stroke-linejoin="bevel" transform="matrix(1,0,0,1,0,0)"
font-family="Ubuntu Sans" font-size="11" font-weight="400" font-style="normal" 
>
</g>

<g fill="none" stroke="#000000" stroke-opacity="1" stroke-width="1" stroke-linecap="square" stroke-linejoin="bevel" transform="matrix(1,0,0,1,0,0)"
font-family="Ubuntu Sans" font-size="11" font-weight="400" font-style="normal" 
>
</g>

<g fill="none" stroke="#000000" stroke-opacity="1" stroke-width="1" stroke-linecap="square" stroke-linejoin="bevel" transform="matrix(1.9998,0,0,1.9998,0.00119988,203.98)"
font-family="Ubuntu Sans" font-size="11" font-weight="400" font-style="normal" 
>
</g>

<g fill="#ffffff" fill-opacity="1" stroke="none" transform="matrix(1.9998,0,0,1.9998,0.00119988,203.98)"
font-family="Ubuntu Sans" font-size="11" font-weight="400" font-style="normal" 
>
<rect x="-0.0006" y="-102" width="698.069" height="102.5"/>
</g>

<g fill="none" stroke="#000000" stroke-opacity="1" stroke-width="1" stroke-linecap="square" stroke-linejoin="bevel" transform="matrix(1.9998,0,0,1.9998,0.00119988,203.98)"
font-family="Ubuntu Sans" font-size="11" font-weight="400" font-style="normal" 
>
</g>

<g fill="none" stroke="#000000" stroke-opacity="1" stroke-width="1" stroke-linecap="square" stroke-linejoin="bevel" transform="matrix(1.9998,0,0,1.9998,0.00119988,203.98)"
font-family="Ubuntu Sans" font-size="11" font-weight="400" font-style="normal" 
>
</g>

<g fill="none" stroke="#000000" stroke-opacity="1" stroke-width="1" stroke-linecap="square" stroke-linejoin="bevel" transform="matrix(1.9998,0,0,1.9998,0.00119988,203.98)"
font-family="Ubuntu Sans" font-size="11" font-weight="400" font-style="normal" 
>
</g>

<g fill="none" stroke="#000000" stroke-opacity="1" stroke-width="1" stroke-linecap="square" stroke-linejoin="bevel" transform="matrix(1.9998,0,0,1.9998,0.00119988,203.98)"
font-family="Ubuntu Sans" font-size="11" font-weight="400" font-style="normal" 
>
</g>

<g fill="none" stroke="#000000" stroke-opacity="1" stroke-width="1" stroke-linecap="square" stroke-linejoin="round" transform="matrix(1.9998,0,0,1.9998,0.00119988,203.98)"
font-family="Ubuntu Sans" font-size="11" font-weight="400" font-style="normal" 
>
<rect x="362.281" y="-101.5" width="77.9984" height="35"/>
</g>

<g fill="none" stroke="#000000" stroke-opacity="1" stroke-width="1" stroke-linecap="square" stroke-linejoin="bevel" transform="matrix(1.9998,0,0,1.9998,0.00119988,203.98)"
font-family="Ubuntu Sans" font-size="11" font-weight="400" font-style="normal" 
>
</g>

<g fill="none" stroke="#000000" stroke-opacity="1" stroke-width="1" stroke-linecap="square" stroke-linejoin="bevel" transform="matrix(1.9998,0,0,1.9998,756.627,19.998)"
font-family="Ubuntu Sans" font-size="11" font-weight="400" font-style="normal" 
>
</g>

<g fill="none" stroke="#000000" stroke-opacity="1" stroke-width="1" stroke-linecap="square" stroke-linejoin="bevel" transform="matrix(1.9998,0,0,1.9998,756.627,19.998)"
font-family="sans" font-size="11" font-weight="100" font-style="normal" 
>
</g>

<g fill="#000000" fill-opacity="1" stroke="#000000" stroke-opacity="1" stroke-width="1" stroke-linecap="square" stroke-linejoin="round" transform="matrix(1.9998,0,0,1.9998,756.627,19.998)"
font-family="sans" font-size="11" font-weight="100" font-style="normal" 
>
<path vector-effect="none" fill-rule="nonzero" d="M3.98438,4.14063 L1.0625,12 L0.109375,12 L3.03125,4.14063 L3.98438,4.14063 M7.375,12.1094 C6.85417,12.1094 6.39063,12.0026 5.98438,11.7891 C5.57813,11.5755 5.26042,11.2448 5.03125,10.7969 C4.80208,10.349 4.6875,9.77604 4.6875,9.07813 C4.6875,8.35938 4.80729,7.77083 5.04688,7.3125 C5.28646,6.85417 5.61458,6.52083 6.03125,6.3125 C6.44792,6.10417 6.91667,6 7.4375,6 C7.73958,6 8.03125,6.03125 8.3125,6.09375 C8.59375,6.15625 8.82292,6.22917 9,6.3125 L8.70313,7.10938 C8.52604,7.04688 8.32031,6.98698 8.08594,6.92969 C7.85156,6.8724 7.63021,6.84375 7.42188,6.84375 C6.26563,6.84375 5.6875,7.58854 5.6875,9.07813 C5.6875,9.78646 5.82813,10.3307 6.10938,10.7109 C6.39063,11.0911 6.8125,11.2813 7.375,11.2813 C7.69792,11.2813 7.98177,11.2474 8.22656,11.1797 C8.47135,11.112 8.69271,11.0313 8.89063,10.9375 L8.89063,11.7969 C8.69271,11.8906 8.47656,11.9661 8.24219,12.0234 C8.00781,12.0807 7.71875,12.1094 7.375,12.1094 M16.75,6 C17.4167,6 17.9141,6.16927 18.2422,6.50781 C18.5703,6.84635 18.7344,7.39583 18.7344,8.15625 L18.7344,12 L17.7813,12 L17.7813,8.20313 C17.7813,7.27604 17.3802,6.8125 16.5781,6.8125 C16.0052,6.8125 15.5964,6.97656 15.3516,7.30469 C15.1068,7.63281 14.9844,8.11458 14.9844,8.75 L14.9844,12 L14.0313,12 L14.0313,8.20313 C14.0313,7.27604 13.625,6.8125 12.8125,6.8125 C12.2188,6.8125 11.8099,6.99479 11.5859,7.35938 C11.362,7.72396 11.25,8.25 11.25,8.9375 L11.25,12 L10.2813,12 L10.2813,6.10938 L11.0625,6.10938 L11.2031,6.90625 L11.2656,6.90625 C11.4427,6.59375 11.6875,6.36458 12,6.21875 C12.3125,6.07292 12.6458,6 13,6 C13.9167,6 14.5156,6.32813 14.7969,6.98438 L14.8594,6.98438 C15.0573,6.65104 15.3255,6.40365 15.6641,6.24219 C16.0026,6.08073 16.3646,6 16.75,6 M22.6563,12.1094 C21.9167,12.1094 21.3281,11.8542 20.8906,11.3438 C20.4531,10.8333 20.2344,10.0729 20.2344,9.0625 C20.2344,8.05208 20.4557,7.28906 20.8984,6.77344 C21.3411,6.25781 21.9271,6 22.6563,6 C23.1146,6 23.4896,6.08333 23.7813,6.25 C24.0729,6.41667 24.3073,6.61979 24.4844,6.85938 L24.5469,6.85938 C24.5469,6.76563 24.5365,6.625 24.5156,6.4375 C24.4948,6.25 24.4844,6.10417 24.4844,6 L24.4844,3.64063 L25.4531,3.64063 L25.4531,12 L24.6719,12 L24.5313,11.2031 L24.4844,11.2031 C24.3073,11.4531 24.0729,11.6667 23.7813,11.8438 C23.4896,12.0208 23.1146,12.1094 22.6563,12.1094 M22.7969,11.3125 C23.4219,11.3125 23.862,11.1406 24.1172,10.7969 C24.3724,10.4531 24.5,9.9375 24.5,9.25 L24.5,9.07813 C24.5,8.33854 24.3776,7.77344 24.1328,7.38281 C23.888,6.99219 23.4427,6.79688 22.7969,6.79688 C22.276,6.79688 21.8854,7.00521 21.625,7.42188 C21.3646,7.83854 21.2344,8.39063 21.2344,9.07813 C21.2344,9.78646 21.3646,10.3359 21.625,10.7266 C21.8854,11.1172 22.276,11.3125 22.7969,11.3125 M31.2813,13.6875 L26.3594,13.6875 L26.3594,12.9844 L31.2813,12.9844 L31.2813,13.6875 M33.4844,12 L31.25,6.10938 L32.2813,6.10938 L33.5313,9.57813 C33.5938,9.74479 33.6589,9.92708 33.7266,10.125 C33.7943,10.3229 33.8542,10.5104 33.9063,10.6875 C33.9583,10.8646 33.9948,11.0156 34.0156,11.1406 L34.0625,11.1406 C34.0833,11.0156 34.1224,10.862 34.1797,10.6797 C34.237,10.4974 34.2995,10.3073 34.3672,10.1094 C34.4349,9.91146 34.4948,9.73438 34.5469,9.57813 L35.7969,6.10938 L36.8438,6.10938 L34.5938,12 L33.4844,12 M40.0469,6 C40.5469,6 40.9792,6.10938 41.3438,6.32813 C41.7083,6.54688 41.987,6.85677 42.1797,7.25781 C42.3724,7.65885 42.4688,8.125 42.4688,8.65625 L42.4688,9.23438 L38.4375,9.23438 C38.4479,9.90104 38.6172,10.4089 38.9453,10.7578 C39.2734,11.1068 39.7292,11.2813 40.3125,11.2813 C40.6875,11.2813 41.0208,11.2474 41.3125,11.1797 C41.6042,11.112 41.901,11.0104 42.2031,10.875 L42.2031,11.7188 C41.901,11.8542 41.6042,11.9531 41.3125,12.0156 C41.0208,12.0781 40.6719,12.1094 40.2656,12.1094 C39.7135,12.1094 39.2214,11.9948 38.7891,11.7656 C38.3568,11.5365 38.0234,11.1979 37.7891,10.75 C37.5547,10.3021 37.4375,9.75 37.4375,9.09375 C37.4375,8.44792 37.5443,7.89323 37.7578,7.42969 C37.9714,6.96615 38.276,6.61198 38.6719,6.36719 C39.0677,6.1224 39.526,6 40.0469,6 M40.0313,6.78125 C39.5729,6.78125 39.2083,6.92969 38.9375,7.22656 C38.6667,7.52344 38.5052,7.9375 38.4531,8.46875 L41.4531,8.46875 C41.4531,7.96875 41.3385,7.5625 41.1094,7.25 C40.8802,6.9375 40.5208,6.78125 40.0313,6.78125 M44.9375,12 L43.9688,12 L43.9688,3.64063 L44.9375,3.64063 L44.9375,12"/>
</g>

<g fill="none" stroke="#000000" stroke-opacity="1" stroke-width="1" stroke-linecap="square" stroke-linejoin="bevel" transform="matrix(1.9998,0,0,1.9998,756.627,19.998)"
font-family="sans" font-size="11" font-weight="100" font-style="normal" 
>
</g>

<g fill="none" stroke="#000000" stroke-opacity="1" stroke-width="1" stroke-linecap="square" stroke-linejoin="bevel" transform="matrix(1.9998,0,0,1.9998,756.627,19.998)"
font-family="Ubuntu Sans" font-size="11" font-weight="400" font-style="normal" 
>
</g>

<g fill="none" stroke="#000000" stroke-opacity="1" stroke-width="1" stroke-linecap="square" stroke-linejoin="bevel" transform="matrix(1.9998,0,0,1.9998,0.00119988,203.98)"
font-family="Ubuntu Sans" font-size="11" font-weight="400" font-style="normal" 
>
</g>

<g fill="none" stroke="#000000" stroke-opacity="1" stroke-width="1" stroke-linecap="square" stroke-linejoin="bevel" transform="matrix(1.9998,0,0,1.9998,0.00119988,203.98)"
font-family="Ubuntu Sans" font-size="11" font-weight="400" font-style="normal" 
>
</g>

<g fill="none" stroke="#000000" stroke-opacity="1" stroke-width="1" stroke-linecap="square" stroke-linejoin="bevel" transform="matrix(1.9998,0,0,1.9998,0.00119988,203.98)"
font-family="Ubuntu Sans" font-size="11" font-weight="400" font-style="normal" 
>
</g>

<g fill="none" stroke="#000000" stroke-opacity="1" stroke-width="1" stroke-linecap="square" stroke-linejoin="round" transform="matrix(1.9998,0,0,1.9998,0.00119988,203.98)"
font-family="Ubuntu Sans" font-size="11" font-weight="400" font-style="normal" 
>
<ellipse cx="494.43" cy="-84" rx="39.1468" ry="17.5"/>
</g>

<g fill="none" stroke="#000000" stroke-opacity="1" stroke-width="1" stroke-linecap="square" stroke-linejoin="bevel" transform="matrix(1.9998,0,0,1.9998,0.00119988,203.98)"
font-family="Ubuntu Sans" font-size="11" font-weight="400" font-style="normal" 
>
</g>

<g fill="none" stroke="#000000" stroke-opacity="1" stroke-width="1" stroke-linecap="square" stroke-linejoin="bevel" transform="matrix(1.9998,0,0,1.9998,956.875,19.998)"
font-family="Ubuntu Sans" font-size="11" font-weight="400" font-style="normal" 
>
</g>

<g fill="none" stroke="#000000" stroke-opacity="1" stroke-width="1" stroke-linecap="square" stroke-linejoin="bevel" transform="matrix(1.9998,0,0,1.9998,956.875,19.998)"
font-family="sans" font-size="11" font-weight="100" font-style="normal" 
>
</g>

<g fill="#000000" fill-opacity="1" stroke="#000000" stroke-opacity="1" stroke-width="1" stroke-linecap="square" stroke-linejoin="round" transform="matrix(1.9998,0,0,1.9998,956.875,19.998)"
font-family="sans" font-size="11" font-weight="100" font-style="normal" 
>
<path vector-effect="none" fill-rule="nonzero" d="M3.98438,4.14063 L1.0625,12 L0.109375,12 L3.03125,4.14063 L3.98438,4.14063 M8.85938,10.375 C8.85938,10.9479 8.64583,11.3802 8.21875,11.6719 C7.79167,11.9635 7.21875,12.1094 6.5,12.1094 C6.08333,12.1094 5.72656,12.0755 5.42969,12.0078 C5.13281,11.9401 4.875,11.849 4.65625,11.7344 L4.65625,10.8594 C4.88542,10.974 5.16667,11.0807 5.5,11.1797 C5.83333,11.2786 6.17188,11.3281 6.51563,11.3281 C7.00521,11.3281 7.36198,11.25 7.58594,11.0938 C7.8099,10.9375 7.92188,10.724 7.92188,10.4531 C7.92188,10.3073 7.88021,10.1771 7.79688,10.0625 C7.71354,9.94792 7.56771,9.83073 7.35938,9.71094 C7.15104,9.59115 6.85417,9.45833 6.46875,9.3125 C6.08333,9.16667 5.75521,9.02083 5.48438,8.875 C5.21354,8.72917 5.00521,8.55469 4.85938,8.35156 C4.71354,8.14844 4.64063,7.88542 4.64063,7.5625 C4.64063,7.0625 4.84375,6.67708 5.25,6.40625 C5.65625,6.13542 6.1875,6 6.84375,6 C7.20833,6 7.54688,6.03385 7.85938,6.10156 C8.17188,6.16927 8.46354,6.26563 8.73438,6.39063 L8.40625,7.15625 C8.15625,7.05208 7.89583,6.96354 7.625,6.89063 C7.35417,6.81771 7.07292,6.78125 6.78125,6.78125 C6.38542,6.78125 6.08333,6.84635 5.875,6.97656 C5.66667,7.10677 5.5625,7.28125 5.5625,7.5 C5.5625,7.66667 5.60938,7.80469 5.70313,7.91406 C5.79688,8.02344 5.95573,8.13281 6.17969,8.24219 C6.40365,8.35156 6.70313,8.47917 7.07813,8.625 C7.45313,8.76042 7.77344,8.90104 8.03906,9.04688 C8.30469,9.19271 8.50781,9.3724 8.64844,9.58594 C8.78906,9.79948 8.85938,10.0625 8.85938,10.375 M12.5625,6 C13.0625,6 13.4948,6.10938 13.8594,6.32813 C14.224,6.54688 14.5026,6.85677 14.6953,7.25781 C14.888,7.65885 14.9844,8.125 14.9844,8.65625 L14.9844,9.23438 L10.9531,9.23438 C10.9635,9.90104 11.1328,10.4089 11.4609,10.7578 C11.7891,11.1068 12.2448,11.2813 12.8281,11.2813 C13.2031,11.2813 13.5365,11.2474 13.8281,11.1797 C14.1198,11.112 14.4167,11.0104 14.7188,10.875 L14.7188,11.7188 C14.4167,11.8542 14.1198,11.9531 13.8281,12.0156 C13.5365,12.0781 13.1875,12.1094 12.7813,12.1094 C12.2292,12.1094 11.737,11.9948 11.3047,11.7656 C10.8724,11.5365 10.5391,11.1979 10.3047,10.75 C10.0703,10.3021 9.95313,9.75 9.95313,9.09375 C9.95313,8.44792 10.0599,7.89323 10.2734,7.42969 C10.487,6.96615 10.7917,6.61198 11.1875,6.36719 C11.5833,6.1224 12.0417,6 12.5625,6 M12.5469,6.78125 C12.0885,6.78125 11.724,6.92969 11.4531,7.22656 C11.1823,7.52344 11.0208,7.9375 10.9688,8.46875 L13.9688,8.46875 C13.9688,7.96875 13.8542,7.5625 13.625,7.25 C13.3958,6.9375 13.0365,6.78125 12.5469,6.78125 M19.2344,6 C19.3385,6 19.4557,6.00521 19.5859,6.01563 C19.7161,6.02604 19.8281,6.04167 19.9219,6.0625 L19.7969,6.95313 C19.7031,6.93229 19.6016,6.91406 19.4922,6.89844 C19.3828,6.88281 19.276,6.875 19.1719,6.875 C18.8698,6.875 18.5859,6.95833 18.3203,7.125 C18.0547,7.29167 17.8438,7.52344 17.6875,7.82031 C17.5313,8.11719 17.4531,8.46354 17.4531,8.85938 L17.4531,12 L16.4844,12 L16.4844,6.10938 L17.2813,6.10938 L17.3906,7.1875 L17.4219,7.1875 C17.6198,6.86458 17.8672,6.58594 18.1641,6.35156 C18.4609,6.11719 18.8177,6 19.2344,6 M21.5156,3.89063 C21.6615,3.89063 21.7891,3.9401 21.8984,4.03906 C22.0078,4.13802 22.0625,4.29688 22.0625,4.51563 C22.0625,4.71354 22.0078,4.86458 21.8984,4.96875 C21.7891,5.07292 21.6615,5.125 21.5156,5.125 C21.349,5.125 21.2109,5.07292 21.1016,4.96875 C20.9922,4.86458 20.9375,4.71354 20.9375,4.51563 C20.9375,4.29688 20.9922,4.13802 21.1016,4.03906 C21.2109,3.9401 21.349,3.89063 21.5156,3.89063 M21.9844,6.10938 L21.9844,12 L21.0156,12 L21.0156,6.10938 L21.9844,6.10938 M26.0781,6 C26.7969,6 27.3281,6.15885 27.6719,6.47656 C28.0156,6.79427 28.1875,7.29688 28.1875,7.98438 L28.1875,12 L27.4844,12 L27.2969,11.1563 L27.25,11.1563 C26.9896,11.4792 26.7188,11.7188 26.4375,11.875 C26.1563,12.0313 25.7656,12.1094 25.2656,12.1094 C24.7344,12.1094 24.2917,11.9688 23.9375,11.6875 C23.5833,11.4063 23.4063,10.9635 23.4063,10.3594 C23.4063,9.77604 23.638,9.32552 24.1016,9.00781 C24.5651,8.6901 25.276,8.51563 26.2344,8.48438 L27.2344,8.45313 L27.2344,8.09375 C27.2344,7.60417 27.1302,7.26302 26.9219,7.07031 C26.7135,6.8776 26.4115,6.78125 26.0156,6.78125 C25.7135,6.78125 25.4219,6.82813 25.1406,6.92188 C24.8594,7.01563 24.599,7.11979 24.3594,7.23438 L24.0625,6.51563 C24.3229,6.36979 24.6276,6.2474 24.9766,6.14844 C25.3255,6.04948 25.6927,6 26.0781,6 M26.3594,9.15625 C25.6302,9.17708 25.1224,9.29167 24.8359,9.5 C24.5495,9.70833 24.4063,10 24.4063,10.375 C24.4063,10.6979 24.5078,10.9375 24.7109,11.0938 C24.9141,11.25 25.1719,11.3281 25.4844,11.3281 C25.9844,11.3281 26.401,11.1901 26.7344,10.9141 C27.0677,10.638 27.2344,10.2135 27.2344,9.64063 L27.2344,9.125 L26.3594,9.15625 M30.9688,12 L30,12 L30,3.64063 L30.9688,3.64063 L30.9688,12"/>
</g>

<g fill="none" stroke="#000000" stroke-opacity="1" stroke-width="1" stroke-linecap="square" stroke-linejoin="bevel" transform="matrix(1.9998,0,0,1.9998,956.875,19.998)"
font-family="sans" font-size="11" font-weight="100" font-style="normal" 
>
</g>

<g fill="none" stroke="#000000" stroke-opacity="1" stroke-width="1" stroke-linecap="square" stroke-linejoin="bevel" transform="matrix(1.9998,0,0,1.9998,956.875,19.998)"
font-family="Ubuntu Sans" font-size="11" font-weight="400" font-style="normal" 
>
</g>

<g fill="none" stroke="#000000" stroke-opacity="1" stroke-width="1" stroke-linecap="square" stroke-linejoin="bevel" transform="matrix(1.9998,0,0,1.9998,0.00119988,203.98)"
font-family="Ubuntu Sans" font-size="11" font-weight="400" font-style="normal" 
>
</g>

<g fill="none" stroke="#000000" stroke-opacity="1" stroke-width="1" stroke-linecap="square" stroke-linejoin="bevel" transform="matrix(1.9998,0,0,1.9998,0.00119988,203.98)"
font-family="Ubuntu Sans" font-size="11" font-weight="400" font-style="normal" 
>
</g>

<g fill="none" stroke="#000000" stroke-opacity="1" stroke-width="1" stroke-linecap="square" stroke-linejoin="bevel" transform="matrix(1.9998,0,0,1.9998,0.00119988,203.98)"
font-family="Ubuntu Sans" font-size="11" font-weight="400" font-style="normal" 
>
</g>

<g fill="none" stroke="#000000" stroke-opacity="1" stroke-width="1" stroke-linecap="square" stroke-linejoin="round" transform="matrix(1.9998,0,0,1.9998,0.00119988,203.98)"
font-family="Ubuntu Sans" font-size="11" font-weight="400" font-style="normal" 
>
<rect x="173.092" y="-63.5" width="102.997" height="35"/>
</g>

<g fill="none" stroke="#000000" stroke-opacity="1" stroke-width="1" stroke-linecap="square" stroke-linejoin="bevel" transform="matrix(1.9998,0,0,1.9998,0.00119988,203.98)"
font-family="Ubuntu Sans" font-size="11" font-weight="400" font-style="normal" 
>
</g>

<g fill="none" stroke="#000000" stroke-opacity="1" stroke-width="1" stroke-linecap="square" stroke-linejoin="bevel" transform="matrix(1.9998,0,0,1.9998,384.83,95.9905)"
font-family="Ubuntu Sans" font-size="11" font-weight="400" font-style="normal" 
>
</g>

<g fill="none" stroke="#000000" stroke-opacity="1" stroke-width="1" stroke-linecap="square" stroke-linejoin="bevel" transform="matrix(1.9998,0,0,1.9998,384.83,95.9905)"
font-family="sans" font-size="11" font-weight="100" font-style="normal" 
>
</g>

<g fill="#000000" fill-opacity="1" stroke="#000000" stroke-opacity="1" stroke-width="1" stroke-linecap="square" stroke-linejoin="round" transform="matrix(1.9998,0,0,1.9998,384.83,95.9905)"
font-family="sans" font-size="11" font-weight="100" font-style="normal" 
>
<path vector-effect="none" fill-rule="nonzero" d="M3.98438,4.14063 L1.0625,12 L0.109375,12 L3.03125,4.14063 L3.98438,4.14063 M6.3125,12 L4.07813,6.10938 L5.10938,6.10938 L6.35938,9.57813 C6.42188,9.74479 6.48698,9.92708 6.55469,10.125 C6.6224,10.3229 6.68229,10.5104 6.73438,10.6875 C6.78646,10.8646 6.82292,11.0156 6.84375,11.1406 L6.89063,11.1406 C6.91146,11.0156 6.95052,10.862 7.00781,10.6797 C7.0651,10.4974 7.1276,10.3073 7.19531,10.1094 C7.26302,9.91146 7.32292,9.73438 7.375,9.57813 L8.625,6.10938 L9.67188,6.10938 L7.42188,12 L6.3125,12 M11.0938,3.89063 C11.2396,3.89063 11.3672,3.9401 11.4766,4.03906 C11.5859,4.13802 11.6406,4.29688 11.6406,4.51563 C11.6406,4.71354 11.5859,4.86458 11.4766,4.96875 C11.3672,5.07292 11.2396,5.125 11.0938,5.125 C10.9271,5.125 10.7891,5.07292 10.6797,4.96875 C10.5703,4.86458 10.5156,4.71354 10.5156,4.51563 C10.5156,4.29688 10.5703,4.13802 10.6797,4.03906 C10.7891,3.9401 10.9271,3.89063 11.0938,3.89063 M11.5625,6.10938 L11.5625,12 L10.5938,12 L10.5938,6.10938 L11.5625,6.10938 M17.2656,10.375 C17.2656,10.9479 17.0521,11.3802 16.625,11.6719 C16.1979,11.9635 15.625,12.1094 14.9063,12.1094 C14.4896,12.1094 14.1328,12.0755 13.8359,12.0078 C13.5391,11.9401 13.2813,11.849 13.0625,11.7344 L13.0625,10.8594 C13.2917,10.974 13.5729,11.0807 13.9063,11.1797 C14.2396,11.2786 14.5781,11.3281 14.9219,11.3281 C15.4115,11.3281 15.7682,11.25 15.9922,11.0938 C16.2161,10.9375 16.3281,10.724 16.3281,10.4531 C16.3281,10.3073 16.2865,10.1771 16.2031,10.0625 C16.1198,9.94792 15.974,9.83073 15.7656,9.71094 C15.5573,9.59115 15.2604,9.45833 14.875,9.3125 C14.4896,9.16667 14.1615,9.02083 13.8906,8.875 C13.6198,8.72917 13.4115,8.55469 13.2656,8.35156 C13.1198,8.14844 13.0469,7.88542 13.0469,7.5625 C13.0469,7.0625 13.25,6.67708 13.6563,6.40625 C14.0625,6.13542 14.5938,6 15.25,6 C15.6146,6 15.9531,6.03385 16.2656,6.10156 C16.5781,6.16927 16.8698,6.26563 17.1406,6.39063 L16.8125,7.15625 C16.5625,7.05208 16.3021,6.96354 16.0313,6.89063 C15.7604,6.81771 15.4792,6.78125 15.1875,6.78125 C14.7917,6.78125 14.4896,6.84635 14.2813,6.97656 C14.0729,7.10677 13.9688,7.28125 13.9688,7.5 C13.9688,7.66667 14.0156,7.80469 14.1094,7.91406 C14.2031,8.02344 14.362,8.13281 14.5859,8.24219 C14.8099,8.35156 15.1094,8.47917 15.4844,8.625 C15.8594,8.76042 16.1797,8.90104 16.4453,9.04688 C16.7109,9.19271 16.9141,9.3724 17.0547,9.58594 C17.1953,9.79948 17.2656,10.0625 17.2656,10.375 M19.1875,3.89063 C19.3333,3.89063 19.4609,3.9401 19.5703,4.03906 C19.6797,4.13802 19.7344,4.29688 19.7344,4.51563 C19.7344,4.71354 19.6797,4.86458 19.5703,4.96875 C19.4609,5.07292 19.3333,5.125 19.1875,5.125 C19.0208,5.125 18.8828,5.07292 18.7734,4.96875 C18.6641,4.86458 18.6094,4.71354 18.6094,4.51563 C18.6094,4.29688 18.6641,4.13802 18.7734,4.03906 C18.8828,3.9401 19.0208,3.89063 19.1875,3.89063 M19.6563,6.10938 L19.6563,12 L18.6875,12 L18.6875,6.10938 L19.6563,6.10938 M26.6406,9.04688 C26.6406,10.0156 26.3932,10.7682 25.8984,11.3047 C25.4036,11.8411 24.7344,12.1094 23.8906,12.1094 C23.3698,12.1094 22.9063,11.9896 22.5,11.75 C22.0938,11.5104 21.7734,11.1615 21.5391,10.7031 C21.3047,10.2448 21.1875,9.69271 21.1875,9.04688 C21.1875,8.06771 21.4323,7.3151 21.9219,6.78906 C22.4115,6.26302 23.0781,6 23.9219,6 C24.4531,6 24.9245,6.11719 25.3359,6.35156 C25.7474,6.58594 26.0677,6.92969 26.2969,7.38281 C26.526,7.83594 26.6406,8.39063 26.6406,9.04688 M22.1875,9.04688 C22.1875,9.73438 22.3255,10.2839 22.6016,10.6953 C22.8776,11.1068 23.3125,11.3125 23.9063,11.3125 C24.5,11.3125 24.9375,11.1068 25.2188,10.6953 C25.5,10.2839 25.6406,9.73438 25.6406,9.04688 C25.6406,8.34896 25.5,7.80208 25.2188,7.40625 C24.9375,7.01042 24.5,6.8125 23.9063,6.8125 C23.3021,6.8125 22.8646,7.01042 22.5938,7.40625 C22.3229,7.80208 22.1875,8.34896 22.1875,9.04688 M31,6 C31.6979,6 32.2266,6.16927 32.5859,6.50781 C32.9453,6.84635 33.125,7.39583 33.125,8.15625 L33.125,12 L32.1719,12 L32.1719,8.21875 C32.1719,7.28125 31.7292,6.8125 30.8438,6.8125 C30.1979,6.8125 29.75,6.99479 29.5,7.35938 C29.25,7.72396 29.125,8.25 29.125,8.9375 L29.125,12 L28.1563,12 L28.1563,6.10938 L28.9375,6.10938 L29.0781,6.90625 L29.1406,6.90625 C29.3281,6.59375 29.5911,6.36458 29.9297,6.21875 C30.2682,6.07292 30.625,6 31,6 M38,4.14063 L35.0781,12 L34.125,12 L37.0469,4.14063 L38,4.14063 M41.3125,6 C41.8125,6 42.2448,6.10938 42.6094,6.32813 C42.974,6.54688 43.2526,6.85677 43.4453,7.25781 C43.638,7.65885 43.7344,8.125 43.7344,8.65625 L43.7344,9.23438 L39.7031,9.23438 C39.7135,9.90104 39.8828,10.4089 40.2109,10.7578 C40.5391,11.1068 40.9948,11.2813 41.5781,11.2813 C41.9531,11.2813 42.2865,11.2474 42.5781,11.1797 C42.8698,11.112 43.1667,11.0104 43.4688,10.875 L43.4688,11.7188 C43.1667,11.8542 42.8698,11.9531 42.5781,12.0156 C42.2865,12.0781 41.9375,12.1094 41.5313,12.1094 C40.9792,12.1094 40.487,11.9948 40.0547,11.7656 C39.6224,11.5365 39.2891,11.1979 39.0547,10.75 C38.8203,10.3021 38.7031,9.75 38.7031,9.09375 C38.7031,8.44792 38.8099,7.89323 39.0234,7.42969 C39.237,6.96615 39.5417,6.61198 39.9375,6.36719 C40.3333,6.1224 40.7917,6 41.3125,6 M41.2969,6.78125 C40.8385,6.78125 40.474,6.92969 40.2031,7.22656 C39.9323,7.52344 39.7708,7.9375 39.7188,8.46875 L42.7188,8.46875 C42.7188,7.96875 42.6042,7.5625 42.375,7.25 C42.1458,6.9375 41.7865,6.78125 41.2969,6.78125 M47.9844,6 C48.0885,6 48.2057,6.00521 48.3359,6.01563 C48.4661,6.02604 48.5781,6.04167 48.6719,6.0625 L48.5469,6.95313 C48.4531,6.93229 48.3516,6.91406 48.2422,6.89844 C48.1328,6.88281 48.026,6.875 47.9219,6.875 C47.6198,6.875 47.3359,6.95833 47.0703,7.125 C46.8047,7.29167 46.5938,7.52344 46.4375,7.82031 C46.2813,8.11719 46.2031,8.46354 46.2031,8.85938 L46.2031,12 L45.2344,12 L45.2344,6.10938 L46.0313,6.10938 L46.1406,7.1875 L46.1719,7.1875 C46.3698,6.86458 46.6172,6.58594 46.9141,6.35156 C47.2109,6.11719 47.5677,6 47.9844,6 M52.5156,6 C52.6198,6 52.737,6.00521 52.8672,6.01563 C52.9974,6.02604 53.1094,6.04167 53.2031,6.0625 L53.0781,6.95313 C52.9844,6.93229 52.8828,6.91406 52.7734,6.89844 C52.6641,6.88281 52.5573,6.875 52.4531,6.875 C52.151,6.875 51.8672,6.95833 51.6016,7.125 C51.3359,7.29167 51.125,7.52344 50.9688,7.82031 C50.8125,8.11719 50.7344,8.46354 50.7344,8.85938 L50.7344,12 L49.7656,12 L49.7656,6.10938 L50.5625,6.10938 L50.6719,7.1875 L50.7031,7.1875 C50.901,6.86458 51.1484,6.58594 51.4453,6.35156 C51.7422,6.11719 52.099,6 52.5156,6 M59.2031,9.04688 C59.2031,10.0156 58.9557,10.7682 58.4609,11.3047 C57.9661,11.8411 57.2969,12.1094 56.4531,12.1094 C55.9323,12.1094 55.4688,11.9896 55.0625,11.75 C54.6563,11.5104 54.3359,11.1615 54.1016,10.7031 C53.8672,10.2448 53.75,9.69271 53.75,9.04688 C53.75,8.06771 53.9948,7.3151 54.4844,6.78906 C54.974,6.26302 55.6406,6 56.4844,6 C57.0156,6 57.487,6.11719 57.8984,6.35156 C58.3099,6.58594 58.6302,6.92969 58.8594,7.38281 C59.0885,7.83594 59.2031,8.39063 59.2031,9.04688 M54.75,9.04688 C54.75,9.73438 54.888,10.2839 55.1641,10.6953 C55.4401,11.1068 55.875,11.3125 56.4688,11.3125 C57.0625,11.3125 57.5,11.1068 57.7813,10.6953 C58.0625,10.2839 58.2031,9.73438 58.2031,9.04688 C58.2031,8.34896 58.0625,7.80208 57.7813,7.40625 C57.5,7.01042 57.0625,6.8125 56.4688,6.8125 C55.8646,6.8125 55.4271,7.01042 55.1563,7.40625 C54.8854,7.80208 54.75,8.34896 54.75,9.04688 M63.4688,6 C63.5729,6 63.6901,6.00521 63.8203,6.01563 C63.9505,6.02604 64.0625,6.04167 64.1563,6.0625 L64.0313,6.95313 C63.9375,6.93229 63.8359,6.91406 63.7266,6.89844 C63.6172,6.88281 63.5104,6.875 63.4063,6.875 C63.1042,6.875 62.8203,6.95833 62.5547,7.125 C62.2891,7.29167 62.0781,7.52344 61.9219,7.82031 C61.7656,8.11719 61.6875,8.46354 61.6875,8.85938 L61.6875,12 L60.7188,12 L60.7188,6.10938 L61.5156,6.10938 L61.625,7.1875 L61.6563,7.1875 C61.8542,6.86458 62.1016,6.58594 62.3984,6.35156 C62.6953,6.11719 63.0521,6 63.4688,6 "/>
</g>

<g fill="none" stroke="#000000" stroke-opacity="1" stroke-width="1" stroke-linecap="square" stroke-linejoin="bevel" transform="matrix(1.9998,0,0,1.9998,384.83,95.9905)"
font-family="sans" font-size="11" font-weight="100" font-style="normal" 
>
</g>

<g fill="none" stroke="#000000" stroke-opacity="1" stroke-width="1" stroke-linecap="square" stroke-linejoin="bevel" transform="matrix(1.9998,0,0,1.9998,384.83,95.9905)"
font-family="Ubuntu Sans" font-size="11" font-weight="400" font-style="normal" 
>
</g>

<g fill="none" stroke="#000000" stroke-opacity="1" stroke-width="1" stroke-linecap="square" stroke-linejoin="bevel" transform="matrix(1.9998,0,0,1.9998,0.00119988,203.98)"
font-family="Ubuntu Sans" font-size="11" font-weight="400" font-style="normal" 
>
</g>

<g fill="none" stroke="#000000" stroke-opacity="1" stroke-width="1" stroke-linecap="square" stroke-linejoin="bevel" transform="matrix(1.9998,0,0,1.9998,0.00119988,203.98)"
font-family="Ubuntu Sans" font-size="11" font-weight="400" font-style="normal" 
>
</g>

<g fill="none" stroke="#000000" stroke-opacity="1" stroke-width="1" stroke-linecap="square" stroke-linejoin="bevel" transform="matrix(1.9998,0,0,1.9998,0.00119988,203.98)"
font-family="Ubuntu Sans" font-size="11" font-weight="400" font-style="normal" 
>
</g>

<g fill="none" stroke="#000000" stroke-opacity="1" stroke-width="1" stroke-linecap="square" stroke-linejoin="round" transform="matrix(1.9998,0,0,1.9998,0.00119988,203.98)"
font-family="Ubuntu Sans" font-size="11" font-weight="400" font-style="normal" 
>
<ellipse cx="319.18" cy="-46" rx="28.0973" ry="17.5"/>
</g>

<g fill="none" stroke="#000000" stroke-opacity="1" stroke-width="1" stroke-linecap="square" stroke-linejoin="bevel" transform="matrix(1.9998,0,0,1.9998,0.00119988,203.98)"
font-family="Ubuntu Sans" font-size="11" font-weight="400" font-style="normal" 
>
</g>

<g fill="none" stroke="#000000" stroke-opacity="1" stroke-width="1" stroke-linecap="square" stroke-linejoin="bevel" transform="matrix(1.9998,0,0,1.9998,617.894,95.9905)"
font-family="Ubuntu Sans" font-size="11" font-weight="400" font-style="normal" 
>
</g>

<g fill="none" stroke="#000000" stroke-opacity="1" stroke-width="1" stroke-linecap="square" stroke-linejoin="bevel" transform="matrix(1.9998,0,0,1.9998,617.894,95.9905)"
font-family="sans" font-size="11" font-weight="100" font-style="normal" 
>
</g>

<g fill="#000000" fill-opacity="1" stroke="#000000" stroke-opacity="1" stroke-width="1" stroke-linecap="square" stroke-linejoin="round" transform="matrix(1.9998,0,0,1.9998,617.894,95.9905)"
font-family="sans" font-size="11" font-weight="100" font-style="normal" 
>
<path vector-effect="none" fill-rule="nonzero" d="M3.98438,4.14063 L1.0625,12 L0.109375,12 L3.03125,4.14063 L3.98438,4.14063 M7.8125,6 C8.54167,6 9.1276,6.2526 9.57031,6.75781 C10.013,7.26302 10.2344,8.02604 10.2344,9.04688 C10.2344,10.0469 10.013,10.8073 9.57031,11.3281 C9.1276,11.849 8.54167,12.1094 7.8125,12.1094 C7.35417,12.1094 6.97656,12.0234 6.67969,11.8516 C6.38281,11.6797 6.15104,11.4792 5.98438,11.25 L5.92188,11.25 C5.93229,11.375 5.94531,11.5339 5.96094,11.7266 C5.97656,11.9193 5.98438,12.0833 5.98438,12.2188 L5.98438,14.6406 L5.01563,14.6406 L5.01563,6.10938 L5.8125,6.10938 L5.9375,6.90625 L5.98438,6.90625 C6.16146,6.64583 6.39323,6.42969 6.67969,6.25781 C6.96615,6.08594 7.34375,6 7.8125,6 M7.64063,6.8125 C7.03646,6.8125 6.61198,6.97917 6.36719,7.3125 C6.1224,7.64583 5.99479,8.16146 5.98438,8.85938 L5.98438,9.04688 C5.98438,9.76563 6.10417,10.3229 6.34375,10.7188 C6.58333,11.1146 7.02604,11.3125 7.67188,11.3125 C8.02604,11.3125 8.31771,11.2135 8.54688,11.0156 C8.77604,10.8177 8.94792,10.5469 9.0625,10.2031 C9.17708,9.85938 9.23438,9.46875 9.23438,9.03125 C9.23438,8.35417 9.10417,7.8151 8.84375,7.41406 C8.58333,7.01302 8.18229,6.8125 7.64063,6.8125 M12.2656,3.89063 C12.4115,3.89063 12.5391,3.9401 12.6484,4.03906 C12.7578,4.13802 12.8125,4.29688 12.8125,4.51563 C12.8125,4.71354 12.7578,4.86458 12.6484,4.96875 C12.5391,5.07292 12.4115,5.125 12.2656,5.125 C12.099,5.125 11.9609,5.07292 11.8516,4.96875 C11.7422,4.86458 11.6875,4.71354 11.6875,4.51563 C11.6875,4.29688 11.7422,4.13802 11.8516,4.03906 C11.9609,3.9401 12.099,3.89063 12.2656,3.89063 M12.7344,6.10938 L12.7344,12 L11.7656,12 L11.7656,6.10938 L12.7344,6.10938 M16.6875,12.1094 C15.9479,12.1094 15.3594,11.8542 14.9219,11.3438 C14.4844,10.8333 14.2656,10.0729 14.2656,9.0625 C14.2656,8.05208 14.487,7.28906 14.9297,6.77344 C15.3724,6.25781 15.9583,6 16.6875,6 C17.1458,6 17.5208,6.08333 17.8125,6.25 C18.1042,6.41667 18.3385,6.61979 18.5156,6.85938 L18.5781,6.85938 C18.5781,6.76563 18.5677,6.625 18.5469,6.4375 C18.526,6.25 18.5156,6.10417 18.5156,6 L18.5156,3.64063 L19.4844,3.64063 L19.4844,12 L18.7031,12 L18.5625,11.2031 L18.5156,11.2031 C18.3385,11.4531 18.1042,11.6667 17.8125,11.8438 C17.5208,12.0208 17.1458,12.1094 16.6875,12.1094 M16.8281,11.3125 C17.4531,11.3125 17.8932,11.1406 18.1484,10.7969 C18.4036,10.4531 18.5313,9.9375 18.5313,9.25 L18.5313,9.07813 C18.5313,8.33854 18.4089,7.77344 18.1641,7.38281 C17.9193,6.99219 17.474,6.79688 16.8281,6.79688 C16.3073,6.79688 15.9167,7.00521 15.6563,7.42188 C15.3958,7.83854 15.2656,8.39063 15.2656,9.07813 C15.2656,9.78646 15.3958,10.3359 15.6563,10.7266 C15.9167,11.1172 16.3073,11.3125 16.8281,11.3125 "/>
</g>

<g fill="none" stroke="#000000" stroke-opacity="1" stroke-width="1" stroke-linecap="square" stroke-linejoin="bevel" transform="matrix(1.9998,0,0,1.9998,617.894,95.9905)"
font-family="sans" font-size="11" font-weight="100" font-style="normal" 
>
</g>

<g fill="none" stroke="#000000" stroke-opacity="1" stroke-width="1" stroke-linecap="square" stroke-linejoin="bevel" transform="matrix(1.9998,0,0,1.9998,617.894,95.9905)"
font-family="Ubuntu Sans" font-size="11" font-weight="400" font-style="normal" 
>
</g>

<g fill="none" stroke="#000000" stroke-opacity="1" stroke-width="1" stroke-linecap="square" stroke-linejoin="bevel" transform="matrix(1.9998,0,0,1.9998,0.00119988,203.98)"
font-family="Ubuntu Sans" font-size="11" font-weight="400" font-style="normal" 
>
</g>

<g fill="none" stroke="#000000" stroke-opacity="1" stroke-width="1" stroke-linecap="square" stroke-linejoin="bevel" transform="matrix(1.9998,0,0,1.9998,0.00119988,203.98)"
font-family="Ubuntu Sans" font-size="11" font-weight="400" font-style="normal" 
>
</g>

<g fill="none" stroke="#000000" stroke-opacity="1" stroke-width="1" stroke-linecap="square" stroke-linejoin="bevel" transform="matrix(1.9998,0,0,1.9998,0.00119988,203.98)"
font-family="Ubuntu Sans" font-size="11" font-weight="400" font-style="normal" 
>
</g>

<g fill="none" stroke="#000000" stroke-opacity="1" stroke-width="1" stroke-linecap="square" stroke-linejoin="round" transform="matrix(1.9998,0,0,1.9998,0.00119988,203.98)"
font-family="Ubuntu Sans" font-size="11" font-weight="400" font-style="normal" 
>
<rect x="548.571" y="-55.5" width="148.998" height="35"/>
</g>

<g fill="none" stroke="#000000" stroke-opacity="1" stroke-width="1" stroke-linecap="square" stroke-linejoin="bevel" transform="matrix(1.9998,0,0,1.9998,0.00119988,203.98)"
font-family="Ubuntu Sans" font-size="11" font-weight="400" font-style="normal" 
>
</g>

<g fill="none" stroke="#000000" stroke-opacity="1" stroke-width="1" stroke-linecap="square" stroke-linejoin="bevel" transform="matrix(1.9998,0,0,1.9998,1148.71,111.989)"
font-family="Ubuntu Sans" font-size="11" font-weight="400" font-style="normal" 
>
</g>

<g fill="none" stroke="#000000" stroke-opacity="1" stroke-width="1" stroke-linecap="square" stroke-linejoin="bevel" transform="matrix(1.9998,0,0,1.9998,1148.71,111.989)"
font-family="sans" font-size="11" font-weight="100" font-style="normal" 
>
</g>

<g fill="#000000" fill-opacity="1" stroke="#000000" stroke-opacity="1" stroke-width="1" stroke-linecap="square" stroke-linejoin="round" transform="matrix(1.9998,0,0,1.9998,1148.71,111.989)"
font-family="sans" font-size="11" font-weight="100" font-style="normal" 
>
<path vector-effect="none" fill-rule="nonzero" d="M3.98438,4.14063 L1.0625,12 L0.109375,12 L3.03125,4.14063 L3.98438,4.14063 M7.8125,6 C8.54167,6 9.1276,6.2526 9.57031,6.75781 C10.013,7.26302 10.2344,8.02604 10.2344,9.04688 C10.2344,10.0469 10.013,10.8073 9.57031,11.3281 C9.1276,11.849 8.54167,12.1094 7.8125,12.1094 C7.35417,12.1094 6.97656,12.0234 6.67969,11.8516 C6.38281,11.6797 6.15104,11.4792 5.98438,11.25 L5.92188,11.25 C5.93229,11.375 5.94531,11.5339 5.96094,11.7266 C5.97656,11.9193 5.98438,12.0833 5.98438,12.2188 L5.98438,14.6406 L5.01563,14.6406 L5.01563,6.10938 L5.8125,6.10938 L5.9375,6.90625 L5.98438,6.90625 C6.16146,6.64583 6.39323,6.42969 6.67969,6.25781 C6.96615,6.08594 7.34375,6 7.8125,6 M7.64063,6.8125 C7.03646,6.8125 6.61198,6.97917 6.36719,7.3125 C6.1224,7.64583 5.99479,8.16146 5.98438,8.85938 L5.98438,9.04688 C5.98438,9.76563 6.10417,10.3229 6.34375,10.7188 C6.58333,11.1146 7.02604,11.3125 7.67188,11.3125 C8.02604,11.3125 8.31771,11.2135 8.54688,11.0156 C8.77604,10.8177 8.94792,10.5469 9.0625,10.2031 C9.17708,9.85938 9.23438,9.46875 9.23438,9.03125 C9.23438,8.35417 9.10417,7.8151 8.84375,7.41406 C8.58333,7.01302 8.18229,6.8125 7.64063,6.8125 M14,6 C14.7188,6 15.25,6.15885 15.5938,6.47656 C15.9375,6.79427 16.1094,7.29688 16.1094,7.98438 L16.1094,12 L15.4063,12 L15.2188,11.1563 L15.1719,11.1563 C14.9115,11.4792 14.6406,11.7188 14.3594,11.875 C14.0781,12.0313 13.6875,12.1094 13.1875,12.1094 C12.6563,12.1094 12.2135,11.9688 11.8594,11.6875 C11.5052,11.4063 11.3281,10.9635 11.3281,10.3594 C11.3281,9.77604 11.5599,9.32552 12.0234,9.00781 C12.487,8.6901 13.1979,8.51563 14.1563,8.48438 L15.1563,8.45313 L15.1563,8.09375 C15.1563,7.60417 15.0521,7.26302 14.8438,7.07031 C14.6354,6.8776 14.3333,6.78125 13.9375,6.78125 C13.6354,6.78125 13.3438,6.82813 13.0625,6.92188 C12.7813,7.01563 12.5208,7.11979 12.2813,7.23438 L11.9844,6.51563 C12.2448,6.36979 12.5495,6.2474 12.8984,6.14844 C13.2474,6.04948 13.6146,6 14,6 M14.2813,9.15625 C13.5521,9.17708 13.0443,9.29167 12.7578,9.5 C12.4714,9.70833 12.3281,10 12.3281,10.375 C12.3281,10.6979 12.4297,10.9375 12.6328,11.0938 C12.8359,11.25 13.0938,11.3281 13.4063,11.3281 C13.9063,11.3281 14.3229,11.1901 14.6563,10.9141 C14.9896,10.638 15.1563,10.2135 15.1563,9.64063 L15.1563,9.125 L14.2813,9.15625 M20.6719,6 C20.776,6 20.8932,6.00521 21.0234,6.01563 C21.1536,6.02604 21.2656,6.04167 21.3594,6.0625 L21.2344,6.95313 C21.1406,6.93229 21.0391,6.91406 20.9297,6.89844 C20.8203,6.88281 20.7135,6.875 20.6094,6.875 C20.3073,6.875 20.0234,6.95833 19.7578,7.125 C19.4922,7.29167 19.2813,7.52344 19.125,7.82031 C18.9688,8.11719 18.8906,8.46354 18.8906,8.85938 L18.8906,12 L17.9219,12 L17.9219,6.10938 L18.7188,6.10938 L18.8281,7.1875 L18.8594,7.1875 C19.0573,6.86458 19.3047,6.58594 19.6016,6.35156 C19.8984,6.11719 20.2552,6 20.6719,6 M24.4688,6 C25.1875,6 25.7188,6.15885 26.0625,6.47656 C26.4063,6.79427 26.5781,7.29688 26.5781,7.98438 L26.5781,12 L25.875,12 L25.6875,11.1563 L25.6406,11.1563 C25.3802,11.4792 25.1094,11.7188 24.8281,11.875 C24.5469,12.0313 24.1563,12.1094 23.6563,12.1094 C23.125,12.1094 22.6823,11.9688 22.3281,11.6875 C21.974,11.4063 21.7969,10.9635 21.7969,10.3594 C21.7969,9.77604 22.0286,9.32552 22.4922,9.00781 C22.9557,8.6901 23.6667,8.51563 24.625,8.48438 L25.625,8.45313 L25.625,8.09375 C25.625,7.60417 25.5208,7.26302 25.3125,7.07031 C25.1042,6.8776 24.8021,6.78125 24.4063,6.78125 C24.1042,6.78125 23.8125,6.82813 23.5313,6.92188 C23.25,7.01563 22.9896,7.11979 22.75,7.23438 L22.4531,6.51563 C22.7135,6.36979 23.0182,6.2474 23.3672,6.14844 C23.7161,6.04948 24.0833,6 24.4688,6 M24.75,9.15625 C24.0208,9.17708 23.513,9.29167 23.2266,9.5 C22.9401,9.70833 22.7969,10 22.7969,10.375 C22.7969,10.6979 22.8984,10.9375 23.1016,11.0938 C23.3047,11.25 23.5625,11.3281 23.875,11.3281 C24.375,11.3281 24.7917,11.1901 25.125,10.9141 C25.4583,10.638 25.625,10.2135 25.625,9.64063 L25.625,9.125 L24.75,9.15625 M34.8594,6 C35.526,6 36.0234,6.16927 36.3516,6.50781 C36.6797,6.84635 36.8438,7.39583 36.8438,8.15625 L36.8438,12 L35.8906,12 L35.8906,8.20313 C35.8906,7.27604 35.4896,6.8125 34.6875,6.8125 C34.1146,6.8125 33.7057,6.97656 33.4609,7.30469 C33.2161,7.63281 33.0938,8.11458 33.0938,8.75 L33.0938,12 L32.1406,12 L32.1406,8.20313 C32.1406,7.27604 31.7344,6.8125 30.9219,6.8125 C30.3281,6.8125 29.9193,6.99479 29.6953,7.35938 C29.4714,7.72396 29.3594,8.25 29.3594,8.9375 L29.3594,12 L28.3906,12 L28.3906,6.10938 L29.1719,6.10938 L29.3125,6.90625 L29.375,6.90625 C29.5521,6.59375 29.7969,6.36458 30.1094,6.21875 C30.4219,6.07292 30.7552,6 31.1094,6 C32.026,6 32.625,6.32813 32.9063,6.98438 L32.9688,6.98438 C33.1667,6.65104 33.4349,6.40365 33.7734,6.24219 C34.112,6.08073 34.474,6 34.8594,6 M40.9531,6 C41.4531,6 41.8854,6.10938 42.25,6.32813 C42.6146,6.54688 42.8932,6.85677 43.0859,7.25781 C43.2786,7.65885 43.375,8.125 43.375,8.65625 L43.375,9.23438 L39.3438,9.23438 C39.3542,9.90104 39.5234,10.4089 39.8516,10.7578 C40.1797,11.1068 40.6354,11.2813 41.2188,11.2813 C41.5938,11.2813 41.9271,11.2474 42.2188,11.1797 C42.5104,11.112 42.8073,11.0104 43.1094,10.875 L43.1094,11.7188 C42.8073,11.8542 42.5104,11.9531 42.2188,12.0156 C41.9271,12.0781 41.5781,12.1094 41.1719,12.1094 C40.6198,12.1094 40.1276,11.9948 39.6953,11.7656 C39.263,11.5365 38.9297,11.1979 38.6953,10.75 C38.4609,10.3021 38.3438,9.75 38.3438,9.09375 C38.3438,8.44792 38.4505,7.89323 38.6641,7.42969 C38.8776,6.96615 39.1823,6.61198 39.5781,6.36719 C39.974,6.1224 40.4323,6 40.9531,6 M40.9375,6.78125 C40.4792,6.78125 40.1146,6.92969 39.8438,7.22656 C39.5729,7.52344 39.4115,7.9375 39.3594,8.46875 L42.3594,8.46875 C42.3594,7.96875 42.2448,7.5625 42.0156,7.25 C41.7865,6.9375 41.4271,6.78125 40.9375,6.78125 M46.8438,11.3125 C46.9896,11.3125 47.1406,11.2995 47.2969,11.2734 C47.4531,11.2474 47.5781,11.224 47.6719,11.2031 L47.6719,11.9375 C47.5677,11.9896 47.4193,12.0313 47.2266,12.0625 C47.0339,12.0938 46.849,12.1094 46.6719,12.1094 C46.3698,12.1094 46.0885,12.0573 45.8281,11.9531 C45.5677,11.849 45.3568,11.6641 45.1953,11.3984 C45.0339,11.1328 44.9531,10.7604 44.9531,10.2813 L44.9531,6.84375 L44.1094,6.84375 L44.1094,6.39063 L44.9531,6 L45.3438,4.75 L45.9219,4.75 L45.9219,6.10938 L47.625,6.10938 L47.625,6.84375 L45.9219,6.84375 L45.9219,10.2656 C45.9219,10.6198 46.0078,10.8828 46.1797,11.0547 C46.3516,11.2266 46.5729,11.3125 46.8438,11.3125 M51.125,6 C51.625,6 52.0573,6.10938 52.4219,6.32813 C52.7865,6.54688 53.0651,6.85677 53.2578,7.25781 C53.4505,7.65885 53.5469,8.125 53.5469,8.65625 L53.5469,9.23438 L49.5156,9.23438 C49.526,9.90104 49.6953,10.4089 50.0234,10.7578 C50.3516,11.1068 50.8073,11.2813 51.3906,11.2813 C51.7656,11.2813 52.099,11.2474 52.3906,11.1797 C52.6823,11.112 52.9792,11.0104 53.2813,10.875 L53.2813,11.7188 C52.9792,11.8542 52.6823,11.9531 52.3906,12.0156 C52.099,12.0781 51.75,12.1094 51.3438,12.1094 C50.7917,12.1094 50.2995,11.9948 49.8672,11.7656 C49.4349,11.5365 49.1016,11.1979 48.8672,10.75 C48.6328,10.3021 48.5156,9.75 48.5156,9.09375 C48.5156,8.44792 48.6224,7.89323 48.8359,7.42969 C49.0495,6.96615 49.3542,6.61198 49.75,6.36719 C50.1458,6.1224 50.6042,6 51.125,6 M51.1094,6.78125 C50.651,6.78125 50.2865,6.92969 50.0156,7.22656 C49.7448,7.52344 49.5833,7.9375 49.5313,8.46875 L52.5313,8.46875 C52.5313,7.96875 52.4167,7.5625 52.1875,7.25 C51.9583,6.9375 51.599,6.78125 51.1094,6.78125 M57.7969,6 C57.901,6 58.0182,6.00521 58.1484,6.01563 C58.2786,6.02604 58.3906,6.04167 58.4844,6.0625 L58.3594,6.95313 C58.2656,6.93229 58.1641,6.91406 58.0547,6.89844 C57.9453,6.88281 57.8385,6.875 57.7344,6.875 C57.4323,6.875 57.1484,6.95833 56.8828,7.125 C56.6172,7.29167 56.4063,7.52344 56.25,7.82031 C56.0938,8.11719 56.0156,8.46354 56.0156,8.85938 L56.0156,12 L55.0469,12 L55.0469,6.10938 L55.8438,6.10938 L55.9531,7.1875 L55.9844,7.1875 C56.1823,6.86458 56.4297,6.58594 56.7266,6.35156 C57.0234,6.11719 57.3802,6 57.7969,6 M63.5469,13.6875 L58.625,13.6875 L58.625,12.9844 L63.5469,12.9844 L63.5469,13.6875 M66.7344,6 C67.2344,6 67.6667,6.10938 68.0313,6.32813 C68.3958,6.54688 68.6745,6.85677 68.8672,7.25781 C69.0599,7.65885 69.1563,8.125 69.1563,8.65625 L69.1563,9.23438 L65.125,9.23438 C65.1354,9.90104 65.3047,10.4089 65.6328,10.7578 C65.9609,11.1068 66.4167,11.2813 67,11.2813 C67.375,11.2813 67.7083,11.2474 68,11.1797 C68.2917,11.112 68.5885,11.0104 68.8906,10.875 L68.8906,11.7188 C68.5885,11.8542 68.2917,11.9531 68,12.0156 C67.7083,12.0781 67.3594,12.1094 66.9531,12.1094 C66.401,12.1094 65.9089,11.9948 65.4766,11.7656 C65.0443,11.5365 64.7109,11.1979 64.4766,10.75 C64.2422,10.3021 64.125,9.75 64.125,9.09375 C64.125,8.44792 64.2318,7.89323 64.4453,7.42969 C64.6589,6.96615 64.9635,6.61198 65.3594,6.36719 C65.7552,6.1224 66.2135,6 66.7344,6 M66.7188,6.78125 C66.2604,6.78125 65.8958,6.92969 65.625,7.22656 C65.3542,7.52344 65.1927,7.9375 65.1406,8.46875 L68.1406,8.46875 C68.1406,7.96875 68.026,7.5625 67.7969,7.25 C67.5677,6.9375 67.2083,6.78125 66.7188,6.78125 M71.7344,12 L69.5,6.10938 L70.5313,6.10938 L71.7813,9.57813 C71.8438,9.74479 71.9089,9.92708 71.9766,10.125 C72.0443,10.3229 72.1042,10.5104 72.1563,10.6875 C72.2083,10.8646 72.2448,11.0156 72.2656,11.1406 L72.3125,11.1406 C72.3333,11.0156 72.3724,10.862 72.4297,10.6797 C72.487,10.4974 72.5495,10.3073 72.6172,10.1094 C72.6849,9.91146 72.7448,9.73438 72.7969,9.57813 L74.0469,6.10938 L75.0938,6.10938 L72.8438,12 L71.7344,12 M78.2969,6 C78.7969,6 79.2292,6.10938 79.5938,6.32813 C79.9583,6.54688 80.237,6.85677 80.4297,7.25781 C80.6224,7.65885 80.7188,8.125 80.7188,8.65625 L80.7188,9.23438 L76.6875,9.23438 C76.6979,9.90104 76.8672,10.4089 77.1953,10.7578 C77.5234,11.1068 77.9792,11.2813 78.5625,11.2813 C78.9375,11.2813 79.2708,11.2474 79.5625,11.1797 C79.8542,11.112 80.151,11.0104 80.4531,10.875 L80.4531,11.7188 C80.151,11.8542 79.8542,11.9531 79.5625,12.0156 C79.2708,12.0781 78.9219,12.1094 78.5156,12.1094 C77.9635,12.1094 77.4714,11.9948 77.0391,11.7656 C76.6068,11.5365 76.2734,11.1979 76.0391,10.75 C75.8047,10.3021 75.6875,9.75 75.6875,9.09375 C75.6875,8.44792 75.7943,7.89323 76.0078,7.42969 C76.2214,6.96615 76.526,6.61198 76.9219,6.36719 C77.3177,6.1224 77.776,6 78.2969,6 M78.2813,6.78125 C77.8229,6.78125 77.4583,6.92969 77.1875,7.22656 C76.9167,7.52344 76.7552,7.9375 76.7031,8.46875 L79.7031,8.46875 C79.7031,7.96875 79.5885,7.5625 79.3594,7.25 C79.1302,6.9375 78.7708,6.78125 78.2813,6.78125 M85.0625,6 C85.7604,6 86.2891,6.16927 86.6484,6.50781 C87.0078,6.84635 87.1875,7.39583 87.1875,8.15625 L87.1875,12 L86.2344,12 L86.2344,8.21875 C86.2344,7.28125 85.7917,6.8125 84.9063,6.8125 C84.2604,6.8125 83.8125,6.99479 83.5625,7.35938 C83.3125,7.72396 83.1875,8.25 83.1875,8.9375 L83.1875,12 L82.2188,12 L82.2188,6.10938 L83,6.10938 L83.1406,6.90625 L83.2031,6.90625 C83.3906,6.59375 83.6536,6.36458 83.9922,6.21875 C84.3307,6.07292 84.6875,6 85.0625,6 M90.9844,11.3125 C91.1302,11.3125 91.2813,11.2995 91.4375,11.2734 C91.5938,11.2474 91.7188,11.224 91.8125,11.2031 L91.8125,11.9375 C91.7083,11.9896 91.5599,12.0313 91.3672,12.0625 C91.1745,12.0938 90.9896,12.1094 90.8125,12.1094 C90.5104,12.1094 90.2292,12.0573 89.9688,11.9531 C89.7083,11.849 89.4974,11.6641 89.3359,11.3984 C89.1745,11.1328 89.0938,10.7604 89.0938,10.2813 L89.0938,6.84375 L88.25,6.84375 L88.25,6.39063 L89.0938,6 L89.4844,4.75 L90.0625,4.75 L90.0625,6.10938 L91.7656,6.10938 L91.7656,6.84375 L90.0625,6.84375 L90.0625,10.2656 C90.0625,10.6198 90.1484,10.8828 90.3203,11.0547 C90.4922,11.2266 90.7135,11.3125 90.9844,11.3125 M96.8281,10.375 C96.8281,10.9479 96.6146,11.3802 96.1875,11.6719 C95.7604,11.9635 95.1875,12.1094 94.4688,12.1094 C94.0521,12.1094 93.6953,12.0755 93.3984,12.0078 C93.1016,11.9401 92.8438,11.849 92.625,11.7344 L92.625,10.8594 C92.8542,10.974 93.1354,11.0807 93.4688,11.1797 C93.8021,11.2786 94.1406,11.3281 94.4844,11.3281 C94.974,11.3281 95.3307,11.25 95.5547,11.0938 C95.7786,10.9375 95.8906,10.724 95.8906,10.4531 C95.8906,10.3073 95.849,10.1771 95.7656,10.0625 C95.6823,9.94792 95.5365,9.83073 95.3281,9.71094 C95.1198,9.59115 94.8229,9.45833 94.4375,9.3125 C94.0521,9.16667 93.724,9.02083 93.4531,8.875 C93.1823,8.72917 92.974,8.55469 92.8281,8.35156 C92.6823,8.14844 92.6094,7.88542 92.6094,7.5625 C92.6094,7.0625 92.8125,6.67708 93.2188,6.40625 C93.625,6.13542 94.1563,6 94.8125,6 C95.1771,6 95.5156,6.03385 95.8281,6.10156 C96.1406,6.16927 96.4323,6.26563 96.7031,6.39063 L96.375,7.15625 C96.125,7.05208 95.8646,6.96354 95.5938,6.89063 C95.3229,6.81771 95.0417,6.78125 94.75,6.78125 C94.3542,6.78125 94.0521,6.84635 93.8438,6.97656 C93.6354,7.10677 93.5313,7.28125 93.5313,7.5 C93.5313,7.66667 93.5781,7.80469 93.6719,7.91406 C93.7656,8.02344 93.9245,8.13281 94.1484,8.24219 C94.3724,8.35156 94.6719,8.47917 95.0469,8.625 C95.4219,8.76042 95.7422,8.90104 96.0078,9.04688 C96.2734,9.19271 96.4766,9.3724 96.6172,9.58594 C96.7578,9.79948 96.8281,10.0625 96.8281,10.375 "/>
</g>

<g fill="none" stroke="#000000" stroke-opacity="1" stroke-width="1" stroke-linecap="square" stroke-linejoin="bevel" transform="matrix(1.9998,0,0,1.9998,1148.71,111.989)"
font-family="sans" font-size="11" font-weight="100" font-style="normal" 
>
</g>

<g fill="none" stroke="#000000" stroke-opacity="1" stroke-width="1" stroke-linecap="square" stroke-linejoin="bevel" transform="matrix(1.9998,0,0,1.9998,1148.71,111.989)"
font-family="Ubuntu Sans" font-size="11" font-weight="400" font-style="normal" 
>
</g>

<g fill="none" stroke="#000000" stroke-opacity="1" stroke-width="1" stroke-linecap="square" stroke-linejoin="bevel" transform="matrix(1.9998,0,0,1.9998,0.00119988,203.98)"
font-family="Ubuntu Sans" font-size="11" font-weight="400" font-style="normal" 
>
</g>

<g fill="none" stroke="#000000" stroke-opacity="1" stroke-width="1" stroke-linecap="square" stroke-linejoin="bevel" transform="matrix(1.9998,0,0,1.9998,0.00119988,203.98)"
font-family="Ubuntu Sans" font-size="11" font-weight="400" font-style="normal" 
>
</g>

<g fill="none" stroke="#000000" stroke-opacity="1" stroke-width="1" stroke-linecap="square" stroke-linejoin="bevel" transform="matrix(1.9998,0,0,1.9998,0.00119988,203.98)"
font-family="Ubuntu Sans" font-size="11" font-weight="400" font-style="normal" 
>
</g>

<g fill="none" stroke="#000000" stroke-opacity="1" stroke-width="1" stroke-linecap="square" stroke-linejoin="round" transform="matrix(1.9998,0,0,1.9998,0.00119988,203.98)"
font-family="Ubuntu Sans" font-size="11" font-weight="400" font-style="normal" 
>
<ellipse cx="79.293" cy="-23" rx="78.7936" ry="17.5"/>
</g>

<g fill="none" stroke="#000000" stroke-opacity="1" stroke-width="1" stroke-linecap="square" stroke-linejoin="bevel" transform="matrix(1.9998,0,0,1.9998,0.00119988,203.98)"
font-family="Ubuntu Sans" font-size="11" font-weight="400" font-style="normal" 
>
</g>

<g fill="none" stroke="#000000" stroke-opacity="1" stroke-width="1" stroke-linecap="square" stroke-linejoin="bevel" transform="matrix(1.9998,0,0,1.9998,81.3135,141.986)"
font-family="Ubuntu Sans" font-size="11" font-weight="400" font-style="normal" 
>
</g>

<g fill="none" stroke="#000000" stroke-opacity="1" stroke-width="1" stroke-linecap="square" stroke-linejoin="bevel" transform="matrix(1.9998,0,0,1.9998,81.3135,141.986)"
font-family="sans" font-size="11" font-weight="100" font-style="normal" 
>
</g>

<g fill="#000000" fill-opacity="1" stroke="#000000" stroke-opacity="1" stroke-width="1" stroke-linecap="square" stroke-linejoin="round" transform="matrix(1.9998,0,0,1.9998,81.3135,141.986)"
font-family="sans" font-size="11" font-weight="100" font-style="normal" 
>
<path vector-effect="none" fill-rule="nonzero" d="M3.98438,4.14063 L1.0625,12 L0.109375,12 L3.03125,4.14063 L3.98438,4.14063 M7.375,12.1094 C6.85417,12.1094 6.39063,12.0026 5.98438,11.7891 C5.57813,11.5755 5.26042,11.2448 5.03125,10.7969 C4.80208,10.349 4.6875,9.77604 4.6875,9.07813 C4.6875,8.35938 4.80729,7.77083 5.04688,7.3125 C5.28646,6.85417 5.61458,6.52083 6.03125,6.3125 C6.44792,6.10417 6.91667,6 7.4375,6 C7.73958,6 8.03125,6.03125 8.3125,6.09375 C8.59375,6.15625 8.82292,6.22917 9,6.3125 L8.70313,7.10938 C8.52604,7.04688 8.32031,6.98698 8.08594,6.92969 C7.85156,6.8724 7.63021,6.84375 7.42188,6.84375 C6.26563,6.84375 5.6875,7.58854 5.6875,9.07813 C5.6875,9.78646 5.82813,10.3307 6.10938,10.7109 C6.39063,11.0911 6.8125,11.2813 7.375,11.2813 C7.69792,11.2813 7.98177,11.2474 8.22656,11.1797 C8.47135,11.112 8.69271,11.0313 8.89063,10.9375 L8.89063,11.7969 C8.69271,11.8906 8.47656,11.9661 8.24219,12.0234 C8.00781,12.0807 7.71875,12.1094 7.375,12.1094 M12.5156,6 C13.2344,6 13.7656,6.15885 14.1094,6.47656 C14.4531,6.79427 14.625,7.29688 14.625,7.98438 L14.625,12 L13.9219,12 L13.7344,11.1563 L13.6875,11.1563 C13.4271,11.4792 13.1563,11.7188 12.875,11.875 C12.5938,12.0313 12.2031,12.1094 11.7031,12.1094 C11.1719,12.1094 10.7292,11.9688 10.375,11.6875 C10.0208,11.4063 9.84375,10.9635 9.84375,10.3594 C9.84375,9.77604 10.0755,9.32552 10.5391,9.00781 C11.0026,8.6901 11.7135,8.51563 12.6719,8.48438 L13.6719,8.45313 L13.6719,8.09375 C13.6719,7.60417 13.5677,7.26302 13.3594,7.07031 C13.151,6.8776 12.849,6.78125 12.4531,6.78125 C12.151,6.78125 11.8594,6.82813 11.5781,6.92188 C11.2969,7.01563 11.0365,7.11979 10.7969,7.23438 L10.5,6.51563 C10.7604,6.36979 11.0651,6.2474 11.4141,6.14844 C11.763,6.04948 12.1302,6 12.5156,6 M12.7969,9.15625 C12.0677,9.17708 11.5599,9.29167 11.2734,9.5 C10.987,9.70833 10.8438,10 10.8438,10.375 C10.8438,10.6979 10.9453,10.9375 11.1484,11.0938 C11.3516,11.25 11.6094,11.3281 11.9219,11.3281 C12.4219,11.3281 12.8385,11.1901 13.1719,10.9141 C13.5052,10.638 13.6719,10.2135 13.6719,9.64063 L13.6719,9.125 L12.7969,9.15625 M22.9063,6 C23.5729,6 24.0703,6.16927 24.3984,6.50781 C24.7266,6.84635 24.8906,7.39583 24.8906,8.15625 L24.8906,12 L23.9375,12 L23.9375,8.20313 C23.9375,7.27604 23.5365,6.8125 22.7344,6.8125 C22.1615,6.8125 21.7526,6.97656 21.5078,7.30469 C21.263,7.63281 21.1406,8.11458 21.1406,8.75 L21.1406,12 L20.1875,12 L20.1875,8.20313 C20.1875,7.27604 19.7813,6.8125 18.9688,6.8125 C18.375,6.8125 17.9661,6.99479 17.7422,7.35938 C17.5182,7.72396 17.4063,8.25 17.4063,8.9375 L17.4063,12 L16.4375,12 L16.4375,6.10938 L17.2188,6.10938 L17.3594,6.90625 L17.4219,6.90625 C17.599,6.59375 17.8438,6.36458 18.1563,6.21875 C18.4688,6.07292 18.8021,6 19.1563,6 C20.0729,6 20.6719,6.32813 20.9531,6.98438 L21.0156,6.98438 C21.2135,6.65104 21.4818,6.40365 21.8203,6.24219 C22.1589,6.08073 22.5208,6 22.9063,6 M29,6 C29.5,6 29.9323,6.10938 30.2969,6.32813 C30.6615,6.54688 30.9401,6.85677 31.1328,7.25781 C31.3255,7.65885 31.4219,8.125 31.4219,8.65625 L31.4219,9.23438 L27.3906,9.23438 C27.401,9.90104 27.5703,10.4089 27.8984,10.7578 C28.2266,11.1068 28.6823,11.2813 29.2656,11.2813 C29.6406,11.2813 29.974,11.2474 30.2656,11.1797 C30.5573,11.112 30.8542,11.0104 31.1563,10.875 L31.1563,11.7188 C30.8542,11.8542 30.5573,11.9531 30.2656,12.0156 C29.974,12.0781 29.625,12.1094 29.2188,12.1094 C28.6667,12.1094 28.1745,11.9948 27.7422,11.7656 C27.3099,11.5365 26.9766,11.1979 26.7422,10.75 C26.5078,10.3021 26.3906,9.75 26.3906,9.09375 C26.3906,8.44792 26.4974,7.89323 26.7109,7.42969 C26.9245,6.96615 27.2292,6.61198 27.625,6.36719 C28.0208,6.1224 28.4792,6 29,6 M28.9844,6.78125 C28.526,6.78125 28.1615,6.92969 27.8906,7.22656 C27.6198,7.52344 27.4583,7.9375 27.4063,8.46875 L30.4063,8.46875 C30.4063,7.96875 30.2917,7.5625 30.0625,7.25 C29.8333,6.9375 29.474,6.78125 28.9844,6.78125 M35.6719,6 C35.776,6 35.8932,6.00521 36.0234,6.01563 C36.1536,6.02604 36.2656,6.04167 36.3594,6.0625 L36.2344,6.95313 C36.1406,6.93229 36.0391,6.91406 35.9297,6.89844 C35.8203,6.88281 35.7135,6.875 35.6094,6.875 C35.3073,6.875 35.0234,6.95833 34.7578,7.125 C34.4922,7.29167 34.2813,7.52344 34.125,7.82031 C33.9688,8.11719 33.8906,8.46354 33.8906,8.85938 L33.8906,12 L32.9219,12 L32.9219,6.10938 L33.7188,6.10938 L33.8281,7.1875 L33.8594,7.1875 C34.0573,6.86458 34.3047,6.58594 34.6016,6.35156 C34.8984,6.11719 35.2552,6 35.6719,6 M39.4688,6 C40.1875,6 40.7188,6.15885 41.0625,6.47656 C41.4063,6.79427 41.5781,7.29688 41.5781,7.98438 L41.5781,12 L40.875,12 L40.6875,11.1563 L40.6406,11.1563 C40.3802,11.4792 40.1094,11.7188 39.8281,11.875 C39.5469,12.0313 39.1563,12.1094 38.6563,12.1094 C38.125,12.1094 37.6823,11.9688 37.3281,11.6875 C36.974,11.4063 36.7969,10.9635 36.7969,10.3594 C36.7969,9.77604 37.0286,9.32552 37.4922,9.00781 C37.9557,8.6901 38.6667,8.51563 39.625,8.48438 L40.625,8.45313 L40.625,8.09375 C40.625,7.60417 40.5208,7.26302 40.3125,7.07031 C40.1042,6.8776 39.8021,6.78125 39.4063,6.78125 C39.1042,6.78125 38.8125,6.82813 38.5313,6.92188 C38.25,7.01563 37.9896,7.11979 37.75,7.23438 L37.4531,6.51563 C37.7135,6.36979 38.0182,6.2474 38.3672,6.14844 C38.7161,6.04948 39.0833,6 39.4688,6 M39.75,9.15625 C39.0208,9.17708 38.513,9.29167 38.2266,9.5 C37.9401,9.70833 37.7969,10 37.7969,10.375 C37.7969,10.6979 37.8984,10.9375 38.1016,11.0938 C38.3047,11.25 38.5625,11.3281 38.875,11.3281 C39.375,11.3281 39.7917,11.1901 40.125,10.9141 C40.4583,10.638 40.625,10.2135 40.625,9.64063 L40.625,9.125 L39.75,9.15625 M47.3594,13.6875 L42.4375,13.6875 L42.4375,12.9844 L47.3594,12.9844 L47.3594,13.6875 M49.5625,12 L47.3281,6.10938 L48.3594,6.10938 L49.6094,9.57813 C49.6719,9.74479 49.737,9.92708 49.8047,10.125 C49.8724,10.3229 49.9323,10.5104 49.9844,10.6875 C50.0365,10.8646 50.0729,11.0156 50.0938,11.1406 L50.1406,11.1406 C50.1615,11.0156 50.2005,10.862 50.2578,10.6797 C50.3151,10.4974 50.3776,10.3073 50.4453,10.1094 C50.513,9.91146 50.5729,9.73438 50.625,9.57813 L51.875,6.10938 L52.9219,6.10938 L50.6719,12 L49.5625,12 M54.3438,3.89063 C54.4896,3.89063 54.6172,3.9401 54.7266,4.03906 C54.8359,4.13802 54.8906,4.29688 54.8906,4.51563 C54.8906,4.71354 54.8359,4.86458 54.7266,4.96875 C54.6172,5.07292 54.4896,5.125 54.3438,5.125 C54.1771,5.125 54.0391,5.07292 53.9297,4.96875 C53.8203,4.86458 53.7656,4.71354 53.7656,4.51563 C53.7656,4.29688 53.8203,4.13802 53.9297,4.03906 C54.0391,3.9401 54.1771,3.89063 54.3438,3.89063 M54.8125,6.10938 L54.8125,12 L53.8438,12 L53.8438,6.10938 L54.8125,6.10938 M60.5156,10.375 C60.5156,10.9479 60.3021,11.3802 59.875,11.6719 C59.4479,11.9635 58.875,12.1094 58.1563,12.1094 C57.7396,12.1094 57.3828,12.0755 57.0859,12.0078 C56.7891,11.9401 56.5313,11.849 56.3125,11.7344 L56.3125,10.8594 C56.5417,10.974 56.8229,11.0807 57.1563,11.1797 C57.4896,11.2786 57.8281,11.3281 58.1719,11.3281 C58.6615,11.3281 59.0182,11.25 59.2422,11.0938 C59.4661,10.9375 59.5781,10.724 59.5781,10.4531 C59.5781,10.3073 59.5365,10.1771 59.4531,10.0625 C59.3698,9.94792 59.224,9.83073 59.0156,9.71094 C58.8073,9.59115 58.5104,9.45833 58.125,9.3125 C57.7396,9.16667 57.4115,9.02083 57.1406,8.875 C56.8698,8.72917 56.6615,8.55469 56.5156,8.35156 C56.3698,8.14844 56.2969,7.88542 56.2969,7.5625 C56.2969,7.0625 56.5,6.67708 56.9063,6.40625 C57.3125,6.13542 57.8438,6 58.5,6 C58.8646,6 59.2031,6.03385 59.5156,6.10156 C59.8281,6.16927 60.1198,6.26563 60.3906,6.39063 L60.0625,7.15625 C59.8125,7.05208 59.5521,6.96354 59.2813,6.89063 C59.0104,6.81771 58.7292,6.78125 58.4375,6.78125 C58.0417,6.78125 57.7396,6.84635 57.5313,6.97656 C57.3229,7.10677 57.2188,7.28125 57.2188,7.5 C57.2188,7.66667 57.2656,7.80469 57.3594,7.91406 C57.4531,8.02344 57.612,8.13281 57.8359,8.24219 C58.0599,8.35156 58.3594,8.47917 58.7344,8.625 C59.1094,8.76042 59.4297,8.90104 59.6953,9.04688 C59.9609,9.19271 60.1641,9.3724 60.3047,9.58594 C60.4453,9.79948 60.5156,10.0625 60.5156,10.375 M62.4375,3.89063 C62.5833,3.89063 62.7109,3.9401 62.8203,4.03906 C62.9297,4.13802 62.9844,4.29688 62.9844,4.51563 C62.9844,4.71354 62.9297,4.86458 62.8203,4.96875 C62.7109,5.07292 62.5833,5.125 62.4375,5.125 C62.2708,5.125 62.1328,5.07292 62.0234,4.96875 C61.9141,4.86458 61.8594,4.71354 61.8594,4.51563 C61.8594,4.29688 61.9141,4.13802 62.0234,4.03906 C62.1328,3.9401 62.2708,3.89063 62.4375,3.89063 M62.9063,6.10938 L62.9063,12 L61.9375,12 L61.9375,6.10938 L62.9063,6.10938 M69.8906,9.04688 C69.8906,10.0156 69.6432,10.7682 69.1484,11.3047 C68.6536,11.8411 67.9844,12.1094 67.1406,12.1094 C66.6198,12.1094 66.1563,11.9896 65.75,11.75 C65.3438,11.5104 65.0234,11.1615 64.7891,10.7031 C64.5547,10.2448 64.4375,9.69271 64.4375,9.04688 C64.4375,8.06771 64.6823,7.3151 65.1719,6.78906 C65.6615,6.26302 66.3281,6 67.1719,6 C67.7031,6 68.1745,6.11719 68.5859,6.35156 C68.9974,6.58594 69.3177,6.92969 69.5469,7.38281 C69.776,7.83594 69.8906,8.39063 69.8906,9.04688 M65.4375,9.04688 C65.4375,9.73438 65.5755,10.2839 65.8516,10.6953 C66.1276,11.1068 66.5625,11.3125 67.1563,11.3125 C67.75,11.3125 68.1875,11.1068 68.4688,10.6953 C68.75,10.2839 68.8906,9.73438 68.8906,9.04688 C68.8906,8.34896 68.75,7.80208 68.4688,7.40625 C68.1875,7.01042 67.75,6.8125 67.1563,6.8125 C66.5521,6.8125 66.1146,7.01042 65.8438,7.40625 C65.5729,7.80208 65.4375,8.34896 65.4375,9.04688 M74.25,6 C74.9479,6 75.4766,6.16927 75.8359,6.50781 C76.1953,6.84635 76.375,7.39583 76.375,8.15625 L76.375,12 L75.4219,12 L75.4219,8.21875 C75.4219,7.28125 74.9792,6.8125 74.0938,6.8125 C73.4479,6.8125 73,6.99479 72.75,7.35938 C72.5,7.72396 72.375,8.25 72.375,8.9375 L72.375,12 L71.4063,12 L71.4063,6.10938 L72.1875,6.10938 L72.3281,6.90625 L72.3906,6.90625 C72.5781,6.59375 72.8411,6.36458 73.1797,6.21875 C73.5182,6.07292 73.875,6 74.25,6 "/>
</g>

<g fill="none" stroke="#000000" stroke-opacity="1" stroke-width="1" stroke-linecap="square" stroke-linejoin="bevel" transform="matrix(1.9998,0,0,1.9998,81.3135,141.986)"
font-family="sans" font-size="11" font-weight="100" font-style="normal" 
>
</g>

<g fill="none" stroke="#000000" stroke-opacity="1" stroke-width="1" stroke-linecap="square" stroke-linejoin="bevel" transform="matrix(1.9998,0,0,1.9998,81.3135,141.986)"
font-family="Ubuntu Sans" font-size="11" font-weight="400" font-style="normal" 
>
</g>

<g fill="none" stroke="#000000" stroke-opacity="1" stroke-width="1" stroke-linecap="square" stroke-linejoin="bevel" transform="matrix(1.9998,0,0,1.9998,0.00119988,203.98)"
font-family="Ubuntu Sans" font-size="11" font-weight="400" font-style="normal" 
>
</g>

<g fill="none" stroke="#000000" stroke-opacity="1" stroke-width="1" stroke-linecap="square" stroke-linejoin="bevel" transform="matrix(1.9998,0,0,1.9998,0.00119988,203.98)"
font-family="Ubuntu Sans" font-size="11" font-weight="400" font-style="normal" 
>
</g>

<g fill="none" stroke="#000000" stroke-opacity="1" stroke-width="1" stroke-linecap="square" stroke-linejoin="bevel" transform="matrix(1.9998,0,0,1.9998,0.00119988,203.98)"
font-family="Ubuntu Sans" font-size="11" font-weight="400" font-style="normal" 
>
</g>

<g fill="none" stroke="#000000" stroke-opacity="1" stroke-width="1" stroke-linecap="square" stroke-linejoin="round" transform="matrix(1.9998,0,0,1.9998,0.00119988,203.98)"
font-family="Ubuntu Sans" font-size="11" font-weight="400" font-style="normal" 
>
<path vector-effect="none" fill-rule="evenodd" d="M440.94,-84 C442.08,-84 443.22,-84 444.37,-84 "/>
</g>

<g fill="none" stroke="#000000" stroke-opacity="1" stroke-width="1" stroke-linecap="square" stroke-linejoin="bevel" transform="matrix(1.9998,0,0,1.9998,0.00119988,203.98)"
font-family="Ubuntu Sans" font-size="11" font-weight="400" font-style="normal" 
>
</g>

<g fill="none" stroke="#000000" stroke-opacity="1" stroke-width="1" stroke-linecap="square" stroke-linejoin="bevel" transform="matrix(1.9998,0,0,1.9998,0.00119988,203.98)"
font-family="Ubuntu Sans" font-size="11" font-weight="400" font-style="normal" 
>
</g>

<g fill="#000000" fill-opacity="1" stroke="#000000" stroke-opacity="1" stroke-width="1" stroke-linecap="square" stroke-linejoin="round" transform="matrix(1.9998,0,0,1.9998,0.00119988,203.98)"
font-family="Ubuntu Sans" font-size="11" font-weight="400" font-style="normal" 
>
<path vector-effect="none" fill-rule="evenodd" d="M444.37,-84 L444.37,-80.381 L454.71,-84 L444.37,-87.619 L444.37,-84"/>
</g>

<g fill="none" stroke="#000000" stroke-opacity="1" stroke-width="1" stroke-linecap="square" stroke-linejoin="bevel" transform="matrix(1.9998,0,0,1.9998,0.00119988,203.98)"
font-family="Ubuntu Sans" font-size="11" font-weight="400" font-style="normal" 
>
</g>

<g fill="none" stroke="#000000" stroke-opacity="1" stroke-width="1" stroke-linecap="square" stroke-linejoin="bevel" transform="matrix(1.9998,0,0,1.9998,0.00119988,203.98)"
font-family="Ubuntu Sans" font-size="11" font-weight="400" font-style="normal" 
>
</g>

<g fill="none" stroke="#000000" stroke-opacity="1" stroke-width="1" stroke-linecap="square" stroke-linejoin="bevel" transform="matrix(1.9998,0,0,1.9998,0.00119988,203.98)"
font-family="Ubuntu Sans" font-size="11" font-weight="400" font-style="normal" 
>
</g>

<g fill="none" stroke="#000000" stroke-opacity="1" stroke-width="1" stroke-linecap="square" stroke-linejoin="bevel" transform="matrix(1.9998,0,0,1.9998,0.00119988,203.98)"
font-family="Ubuntu Sans" font-size="11" font-weight="400" font-style="normal" 
>
</g>

<g fill="none" stroke="#000000" stroke-opacity="1" stroke-width="1" stroke-linecap="square" stroke-linejoin="round" transform="matrix(1.9998,0,0,1.9998,0.00119988,203.98)"
font-family="Ubuntu Sans" font-size="11" font-weight="400" font-style="normal" 
>
<path vector-effect="none" fill-rule="evenodd" d="M276.76,-46 C277.93,-46 279.1,-46 280.26,-46 "/>
</g>

<g fill="none" stroke="#000000" stroke-opacity="1" stroke-width="1" stroke-linecap="square" stroke-linejoin="bevel" transform="matrix(1.9998,0,0,1.9998,0.00119988,203.98)"
font-family="Ubuntu Sans" font-size="11" font-weight="400" font-style="normal" 
>
</g>

<g fill="none" stroke="#000000" stroke-opacity="1" stroke-width="1" stroke-linecap="square" stroke-linejoin="bevel" transform="matrix(1.9998,0,0,1.9998,0.00119988,203.98)"
font-family="Ubuntu Sans" font-size="11" font-weight="400" font-style="normal" 
>
</g>

<g fill="#000000" fill-opacity="1" stroke="#000000" stroke-opacity="1" stroke-width="1" stroke-linecap="square" stroke-linejoin="round" transform="matrix(1.9998,0,0,1.9998,0.00119988,203.98)"
font-family="Ubuntu Sans" font-size="11" font-weight="400" font-style="normal" 
>
<path vector-effect="none" fill-rule="evenodd" d="M280.26,-46 L280.26,-42.444 L290.42,-46 L280.26,-49.556 L280.26,-46"/>
</g>

<g fill="none" stroke="#000000" stroke-opacity="1" stroke-width="1" stroke-linecap="square" stroke-linejoin="bevel" transform="matrix(1.9998,0,0,1.9998,0.00119988,203.98)"
font-family="Ubuntu Sans" font-size="11" font-weight="400" font-style="normal" 
>
</g>

<g fill="none" stroke="#000000" stroke-opacity="1" stroke-width="1" stroke-linecap="square" stroke-linejoin="bevel" transform="matrix(1.9998,0,0,1.9998,0.00119988,203.98)"
font-family="Ubuntu Sans" font-size="11" font-weight="400" font-style="normal" 
>
</g>

<g fill="none" stroke="#000000" stroke-opacity="1" stroke-width="1" stroke-linecap="square" stroke-linejoin="bevel" transform="matrix(1.9998,0,0,1.9998,0.00119988,203.98)"
font-family="Ubuntu Sans" font-size="11" font-weight="400" font-style="normal" 
>
</g>

<g fill="none" stroke="#000000" stroke-opacity="1" stroke-width="1" stroke-linecap="square" stroke-linejoin="bevel" transform="matrix(1.9998,0,0,1.9998,0.00119988,203.98)"
font-family="Ubuntu Sans" font-size="11" font-weight="400" font-style="normal" 
>
</g>

<g fill="none" stroke="#000000" stroke-opacity="1" stroke-width="1" stroke-linecap="square" stroke-linejoin="round" transform="matrix(1.9998,0,0,1.9998,0.00119988,203.98)"
font-family="Ubuntu Sans" font-size="11" font-weight="400" font-style="normal" 
>
<path vector-effect="none" fill-rule="evenodd" d="M144.4,-33.289 C150.41,-34.255 156.5,-35.232 162.48,-36.192 "/>
</g>

<g fill="none" stroke="#000000" stroke-opacity="1" stroke-width="1" stroke-linecap="square" stroke-linejoin="bevel" transform="matrix(1.9998,0,0,1.9998,0.00119988,203.98)"
font-family="Ubuntu Sans" font-size="11" font-weight="400" font-style="normal" 
>
</g>

<g fill="none" stroke="#000000" stroke-opacity="1" stroke-width="1" stroke-linecap="square" stroke-linejoin="bevel" transform="matrix(1.9998,0,0,1.9998,0.00119988,203.98)"
font-family="Ubuntu Sans" font-size="11" font-weight="400" font-style="normal" 
>
</g>

<g fill="#000000" fill-opacity="1" stroke="#000000" stroke-opacity="1" stroke-width="1" stroke-linecap="square" stroke-linejoin="round" transform="matrix(1.9998,0,0,1.9998,0.00119988,203.98)"
font-family="Ubuntu Sans" font-size="11" font-weight="400" font-style="normal" 
>
<path vector-effect="none" fill-rule="evenodd" d="M162.48,-36.192 L163.039,-32.7095 L172.43,-37.789 L161.921,-39.6745 L162.48,-36.192"/>
</g>

<g fill="none" stroke="#000000" stroke-opacity="1" stroke-width="1" stroke-linecap="square" stroke-linejoin="bevel" transform="matrix(1.9998,0,0,1.9998,0.00119988,203.98)"
font-family="Ubuntu Sans" font-size="11" font-weight="400" font-style="normal" 
>
</g>

<g fill="none" stroke="#000000" stroke-opacity="1" stroke-width="1" stroke-linecap="square" stroke-linejoin="bevel" transform="matrix(1.9998,0,0,1.9998,0.00119988,203.98)"
font-family="Ubuntu Sans" font-size="11" font-weight="400" font-style="normal" 
>
</g>

<g fill="none" stroke="#000000" stroke-opacity="1" stroke-width="1" stroke-linecap="square" stroke-linejoin="bevel" transform="matrix(1.9998,0,0,1.9998,0.00119988,203.98)"
font-family="Ubuntu Sans" font-size="11" font-weight="400" font-style="normal" 
>
</g>

<g fill="none" stroke="#000000" stroke-opacity="1" stroke-width="1" stroke-linecap="square" stroke-linejoin="bevel" transform="matrix(1.9998,0,0,1.9998,0.00119988,203.98)"
font-family="Ubuntu Sans" font-size="11" font-weight="400" font-style="normal" 
>
</g>

<g fill="none" stroke="#000000" stroke-opacity="1" stroke-width="1" stroke-linecap="square" stroke-linejoin="round" transform="matrix(1.9998,0,0,1.9998,0.00119988,203.98)"
font-family="Ubuntu Sans" font-size="11" font-weight="400" font-style="normal" 
>
<path vector-effect="none" fill-rule="evenodd" d="M146.02,-13.213 C193.69,-6.9526 259.78,0 318.18,0 C318.18,0 318.18,0 402.28,0 C449.6,0 501.83,-8.659 543.5,-17.71 "/>
</g>

<g fill="none" stroke="#000000" stroke-opacity="1" stroke-width="1" stroke-linecap="square" stroke-linejoin="bevel" transform="matrix(1.9998,0,0,1.9998,0.00119988,203.98)"
font-family="Ubuntu Sans" font-size="11" font-weight="400" font-style="normal" 
>
</g>

<g fill="none" stroke="#000000" stroke-opacity="1" stroke-width="1" stroke-linecap="square" stroke-linejoin="bevel" transform="matrix(1.9998,0,0,1.9998,0.00119988,203.98)"
font-family="Ubuntu Sans" font-size="11" font-weight="400" font-style="normal" 
>
</g>

<g fill="#000000" fill-opacity="1" stroke="#000000" stroke-opacity="1" stroke-width="1" stroke-linecap="square" stroke-linejoin="round" transform="matrix(1.9998,0,0,1.9998,0.00119988,203.98)"
font-family="Ubuntu Sans" font-size="11" font-weight="400" font-style="normal" 
>
<path vector-effect="none" fill-rule="evenodd" d="M543.5,-17.71 L544.263,-14.2765 L553.31,-19.89 L542.737,-21.1435 L543.5,-17.71"/>
</g>

<g fill="none" stroke="#000000" stroke-opacity="1" stroke-width="1" stroke-linecap="square" stroke-linejoin="bevel" transform="matrix(1.9998,0,0,1.9998,0.00119988,203.98)"
font-family="Ubuntu Sans" font-size="11" font-weight="400" font-style="normal" 
>
</g>

<g fill="none" stroke="#000000" stroke-opacity="1" stroke-width="1" stroke-linecap="square" stroke-linejoin="bevel" transform="matrix(1.9998,0,0,1.9998,0.00119988,203.98)"
font-family="Ubuntu Sans" font-size="11" font-weight="400" font-style="normal" 
>
</g>

<g fill="none" stroke="#000000" stroke-opacity="1" stroke-width="1" stroke-linecap="square" stroke-linejoin="bevel" transform="matrix(1.9998,0,0,1.9998,0.00119988,203.98)"
font-family="Ubuntu Sans" font-size="11" font-weight="400" font-style="normal" 
>
</g>

<g fill="none" stroke="#000000" stroke-opacity="1" stroke-width="1" stroke-linecap="square" stroke-linejoin="bevel" transform="matrix(1.9998,0,0,1.9998,0.00119988,203.98)"
font-family="Ubuntu Sans" font-size="11" font-weight="400" font-style="normal" 
>
</g>

<g fill="none" stroke="#000000" stroke-opacity="1" stroke-width="1" stroke-linecap="square" stroke-linejoin="round" transform="matrix(1.9998,0,0,1.9998,0.00119988,203.98)"
font-family="Ubuntu Sans" font-size="11" font-weight="400" font-style="normal" 
>
<path vector-effect="none" fill-rule="evenodd" d="M526.08,-72.865 C537.17,-68.839 550.09,-64.145 562.8,-59.531 "/>
</g>

<g fill="none" stroke="#000000" stroke-opacity="1" stroke-width="1" stroke-linecap="square" stroke-linejoin="bevel" transform="matrix(1.9998,0,0,1.9998,0.00119988,203.98)"
font-family="Ubuntu Sans" font-size="11" font-weight="400" font-style="normal" 
>
</g>

<g fill="none" stroke="#000000" stroke-opacity="1" stroke-width="1" stroke-linecap="square" stroke-linejoin="bevel" transform="matrix(1.9998,0,0,1.9998,0.00119988,203.98)"
font-family="Ubuntu Sans" font-size="11" font-weight="400" font-style="normal" 
>
</g>

<g fill="#000000" fill-opacity="1" stroke="#000000" stroke-opacity="1" stroke-width="1" stroke-linecap="square" stroke-linejoin="round" transform="matrix(1.9998,0,0,1.9998,0.00119988,203.98)"
font-family="Ubuntu Sans" font-size="11" font-weight="400" font-style="normal" 
>
<path vector-effect="none" fill-rule="evenodd" d="M562.8,-59.531 L561.575,-56.1605 L572.43,-56.03 L564.025,-62.9015 L562.8,-59.531"/>
</g>

<g fill="none" stroke="#000000" stroke-opacity="1" stroke-width="1" stroke-linecap="square" stroke-linejoin="bevel" transform="matrix(1.9998,0,0,1.9998,0.00119988,203.98)"
font-family="Ubuntu Sans" font-size="11" font-weight="400" font-style="normal" 
>
</g>

<g fill="none" stroke="#000000" stroke-opacity="1" stroke-width="1" stroke-linecap="square" stroke-linejoin="bevel" transform="matrix(1.9998,0,0,1.9998,0.00119988,203.98)"
font-family="Ubuntu Sans" font-size="11" font-weight="400" font-style="normal" 
>
</g>

<g fill="none" stroke="#000000" stroke-opacity="1" stroke-width="1" stroke-linecap="square" stroke-linejoin="bevel" transform="matrix(1.9998,0,0,1.9998,0.00119988,203.98)"
font-family="Ubuntu Sans" font-size="11" font-weight="400" font-style="normal" 
>
</g>

<g fill="none" stroke="#000000" stroke-opacity="1" stroke-width="1" stroke-linecap="square" stroke-linejoin="bevel" transform="matrix(1.9998,0,0,1.9998,0.00119988,203.98)"
font-family="Ubuntu Sans" font-size="11" font-weight="400" font-style="normal" 
>
</g>

<g fill="none" stroke="#000000" stroke-opacity="1" stroke-width="1" stroke-linecap="square" stroke-linejoin="round" transform="matrix(1.9998,0,0,1.9998,0.00119988,203.98)"
font-family="Ubuntu Sans" font-size="11" font-weight="400" font-style="normal" 
>
<path vector-effect="none" fill-rule="evenodd" d="M342.49,-56.585 C345.84,-58.17 349.38,-59.854 353.01,-61.576 "/>
</g>

<g fill="none" stroke="#000000" stroke-opacity="1" stroke-width="1" stroke-linecap="square" stroke-linejoin="bevel" transform="matrix(1.9998,0,0,1.9998,0.00119988,203.98)"
font-family="Ubuntu Sans" font-size="11" font-weight="400" font-style="normal" 
>
</g>

<g fill="none" stroke="#000000" stroke-opacity="1" stroke-width="1" stroke-linecap="square" stroke-linejoin="bevel" transform="matrix(1.9998,0,0,1.9998,0.00119988,203.98)"
font-family="Ubuntu Sans" font-size="11" font-weight="400" font-style="normal" 
>
</g>

<g fill="#000000" fill-opacity="1" stroke="#000000" stroke-opacity="1" stroke-width="1" stroke-linecap="square" stroke-linejoin="round" transform="matrix(1.9998,0,0,1.9998,0.00119988,203.98)"
font-family="Ubuntu Sans" font-size="11" font-weight="400" font-style="normal" 
>
<path vector-effect="none" fill-rule="evenodd" d="M353.01,-61.576 L354.524,-58.384 L362.13,-65.902 L351.496,-64.768 L353.01,-61.576"/>
</g>

<g fill="none" stroke="#000000" stroke-opacity="1" stroke-width="1" stroke-linecap="square" stroke-linejoin="bevel" transform="matrix(1.9998,0,0,1.9998,0.00119988,203.98)"
font-family="Ubuntu Sans" font-size="11" font-weight="400" font-style="normal" 
>
</g>

<g fill="none" stroke="#000000" stroke-opacity="1" stroke-width="1" stroke-linecap="square" stroke-linejoin="bevel" transform="matrix(1.9998,0,0,1.9998,0.00119988,203.98)"
font-family="Ubuntu Sans" font-size="11" font-weight="400" font-style="normal" 
>
</g>

<g fill="none" stroke="#000000" stroke-opacity="1" stroke-width="1" stroke-linecap="square" stroke-linejoin="bevel" transform="matrix(1.9998,0,0,1.9998,0.00119988,203.98)"
font-family="Ubuntu Sans" font-size="11" font-weight="400" font-style="normal" 
>
</g>

<g fill="none" stroke="#000000" stroke-opacity="1" stroke-width="1" stroke-linecap="square" stroke-linejoin="bevel" transform="matrix(1.9998,0,0,1.9998,0.00119988,203.98)"
font-family="Ubuntu Sans" font-size="11" font-weight="400" font-style="normal" 
>
</g>

<g fill="none" stroke="#000000" stroke-opacity="1" stroke-width="1" stroke-linecap="square" stroke-linejoin="round" transform="matrix(1.9998,0,0,1.9998,0.00119988,203.98)"
font-family="Ubuntu Sans" font-size="11" font-weight="400" font-style="normal" 
>
<path vector-effect="none" fill-rule="evenodd" d="M347.77,-45.269 C390.4,-44.139 473.99,-41.924 537.75,-40.235 "/>
</g>

<g fill="none" stroke="#000000" stroke-opacity="1" stroke-width="1" stroke-linecap="square" stroke-linejoin="bevel" transform="matrix(1.9998,0,0,1.9998,0.00119988,203.98)"
font-family="Ubuntu Sans" font-size="11" font-weight="400" font-style="normal" 
>
</g>

<g fill="none" stroke="#000000" stroke-opacity="1" stroke-width="1" stroke-linecap="square" stroke-linejoin="bevel" transform="matrix(1.9998,0,0,1.9998,0.00119988,203.98)"
font-family="Ubuntu Sans" font-size="11" font-weight="400" font-style="normal" 
>
</g>

<g fill="#000000" fill-opacity="1" stroke="#000000" stroke-opacity="1" stroke-width="1" stroke-linecap="square" stroke-linejoin="round" transform="matrix(1.9998,0,0,1.9998,0.00119988,203.98)"
font-family="Ubuntu Sans" font-size="11" font-weight="400" font-style="normal" 
>
<path vector-effect="none" fill-rule="evenodd" d="M537.75,-40.235 L537.657,-36.7175 L547.8,-39.968 L537.843,-43.7525 L537.75,-40.235"/>
</g>

<g fill="none" stroke="#000000" stroke-opacity="1" stroke-width="1" stroke-linecap="square" stroke-linejoin="bevel" transform="matrix(1.9998,0,0,1.9998,0.00119988,203.98)"
font-family="Ubuntu Sans" font-size="11" font-weight="400" font-style="normal" 
>
</g>

<g fill="none" stroke="#000000" stroke-opacity="1" stroke-width="1" stroke-linecap="square" stroke-linejoin="bevel" transform="matrix(1,0,0,1,0,0)"
font-family="Ubuntu Sans" font-size="11" font-weight="400" font-style="normal" 
>
</g>
</g>
</svg>
